<?xml version="1.0" encoding="utf-8"?>
<!-- Generator: Adobe Illustrator 22.0.1, SVG Export Plug-In . SVG Version: 6.00 Build 0)  -->
<svg version="1.1" id="Слой_1" xmlns="http://www.w3.org/2000/svg" xmlns:xlink="http://www.w3.org/1999/xlink" x="0px" y="0px"
	 viewBox="0 0 800 600" style="enable-background:new 0 0 800 600;" xml:space="preserve">
<style type="text/css">
	.st0{fill:#FFCC00;}
	.st1{fill:none;}
	.st2{fill:#C9C9C9;}
	.st3{fill:#FDFDFD;}
	.st4{fill:#FE0000;}
	.st5{fill:#ACACAC;}
	.st6{fill:#FEFEFE;}
	.st7{fill:#545454;}
	.st8{fill:#E6E6E6;}
	.st9{fill:#FAFAFA;}
	.st10{fill:#636363;}
	.st11{fill:#FEFCFC;}
	.st12{fill:#DFDFDF;}
	.st13{fill:#3B3B3B;}
	.st14{fill:#6D6D6D;}
</style>
<g>
	<g id="XMLID_1_">
		<path class="st0" d="M-283.2,666.1c0-0.3,0-0.6,0-0.8c0-0.4-0.1-0.6-0.5-0.5c-0.5,0.1-0.6-0.2-0.6-0.6c0-3.9,0-7.8,0-11.7
			c0-0.3,0.1-0.5-0.1-0.7c-0.6,0-1,0.5-1.4,0.8c-0.3,0.3-0.5,0.2-0.8,0c-0.8-0.8-1.6-1.5-2.4-2.3c-0.2-0.2-0.5-0.3-0.8-0.4
			c-1,0-2,0-2.9-0.1c-0.3,0.1-0.5,0.1-0.8,0.1c0,0,0,0,0,0c0,0,0-0.1,0.1-0.1c1.1-1.2,2-2.5,2.5-4c0.1-0.3,0.2-0.3,0.4-0.2
			c1.6,0.5,3.1,1,4.3,2.2c0.8,0.7,1.1,1.8,1.6,2.7c0.2,0.4,0.5,0.8,0.5,1.3c0.1,0.1,0.1,0.3,0.3,0.2c0.1,0,0.1-0.2,0.1-0.3
			c0.1-1.8,0-3.5-1-5.1c-1.4-2.1-3.2-3.8-5.2-5.2c-0.2-0.1-0.4-0.2-0.5-0.5c3.4,0.2,5.6,2,7,5c0.1-0.5,0.1-0.9,0-1.3
			c-0.3-2-1.5-3.4-3-4.7c-1.2-1-2.6-1.8-4.1-2.4c-0.8-0.3-1.4-0.9-1.7-1.7c-1.3-2.6-3.1-4.7-5.3-6.5c-2.4-1.9-5.2-3.4-7.9-4.9
			c-2.2-1.2-4.3-2.5-6.8-3.1c-1.9-0.4-3.7-0.8-5.6-0.2c-2.6,0.8-5,1.9-7.3,3.3c-0.6,0.3-0.9,0.3-1.4-0.1c-0.8-0.7-1.6-1.6-2.8-1.8
			c-0.3,0-0.5-0.2-0.7-0.4c-1.8-1.5-3.6-3.1-5.3-4.6c-0.4-0.3-0.8-0.5-1.3-0.5c-0.6-0.1-1.2-0.1-1.8-0.2c-0.2,0-0.5,0.1-0.5-0.3
			c0-0.3-0.2-0.8,0.4-0.9c0.5-0.1,0.7-0.4,0.6-0.9c-0.1-0.3,0.1-0.5,0.4-0.4c0.4,0,0.9,0,1.3,0c1.3,0,2.3-1,2.3-2.4
			c0-0.4-0.1-0.5-0.5-0.5c-0.8,0-1.6,0-2.4,0c-0.5,0-0.7-0.2-0.7-0.6c-0.2-0.9-0.3-1.9-0.8-2.7c-0.2-0.4-0.5-0.6-0.9-0.5
			c-1.1,0-2.3-0.1-3.4,0c-0.4,0-0.6,0.1-0.8,0.4c-0.6,0.6-0.9,1.3-1.3,2.1c-0.2,0.3-0.3,0.4-0.7,0.2c-0.7-0.3-1.4-0.4-2.1,0
			c-0.7,0.4-1.3,0.9-2,1.3c-0.1,0.1-0.3,0.1-0.3,0.3c0,0.2,0.2,0.2,0.4,0.3c0.7,0.2,1.4,0.4,2.2,0.6c-0.2,0.1-0.3,0.2-0.4,0.2
			c0,0.1,0,0.2-0.1,0.2c0,0.1,0.1,0.2,0.3,0.2c0.3,0,0.6,0,1.1,0c-0.6,0.5,0.3,0.8-0.1,1.2c0.1,0.1,0.3,0.2,0.1,0.4
			c-0.1,0.1-0.2-0.1-0.2-0.2c-0.3-0.4-0.7-0.8-1-1.2c-0.1-0.2-0.3-0.2-0.4-0.1v1c-0.7-0.4-1.2-1.5-2.2-0.7c-0.4,0.3-0.9,0.7-0.4,1.4
			c-1.3,0-2.4,0-3.6,0c-1.5-0.1-3,0.1-4.4,0.6c-1.6,0.6-3.4,0.9-4.9,1.9c-1.1,0.7-2.2,1.3-3.3,2c-0.5,0.3-1,0.6-1.4,1
			c-0.2,0.1-0.4,0.3-0.2,0.6c0.2,0.3,0.4,0.2,0.6,0.1c0.6-0.2,1.1-0.4,1.8-0.7c0,0.4-0.1,0.7-0.1,0.9c0,0.1,0,0.3,0.1,0.3
			c0.2,0.1,0.2-0.1,0.3-0.2c0.4-0.4,0.7-0.8,1.1-1.2c0.2-0.2,0.4-0.2,0.6-0.2c0.2,0.1,0.1,0.3,0.1,0.5c0,0.4,0,0.8,0,1.2
			c0,0.1,0,0.2,0.1,0.3c0.2,0.1,0.2-0.1,0.3-0.2c0.3-0.6,0.7-1.2,1.1-1.7c0.3-0.5,0.8-0.7,1.4-0.8c1.5-0.3,3-0.5,4.4-0.9
			c1.1-0.4,1.8,0.1,2.7,0.7c-1.3,1.1-2.5,2.1-3.8,3.1c-0.1,0.1-0.3,0.2-0.2,0.3c0.1,0.2,0.3,0.1,0.4,0.1c0.2,0,0.4-0.1,0.5-0.2
			c1.3-0.7,2.5-1.5,3.6-2.4c0.2-0.1,0.4-0.4,0.6-0.2c0.2,0.1,0.1,0.4,0,0.6c-0.2,0.7-0.5,1.4-0.7,2c-0.1,0.2-0.2,0.4,0,0.6
			c0.2,0.1,0.4,0,0.6-0.2c0.5-0.5,0.8-1.1,1-1.7c0.1-0.3,0.1-0.9,0.5-0.9c0.4,0,0.7,0.4,1,0.8c0,0.1,0.1,0.1,0.1,0.2
			c0.9,1.7,1.9,3.4,2.8,5.1c0.1,0.3,0.2,0.5,0.2,0.8c0.2,2.3-0.3,4.5-0.8,6.7c-0.3,1.3-0.3,2.4,1.1,3.2c0.6,0.3,0.6,1.3,0.2,1.8
			c-0.4,0.4-0.6,0.8-0.5,1.3c0,0.3-0.1,0.4-0.3,0.6c-2.6,1.8-5,3.8-8.1,4.7c-1.7,0.4-3,1.6-3.9,3.2c-0.1,0.2-0.3,0.3,0,0.5
			c0.3,0.2,1.9,0.3,2.2,0c0.6-0.6,1.3-0.6,2.1-0.6c0.4,0,0.5,0.2,0.4,0.5c0,0.6,0,1.2,0,1.9c0,0.2,0,0.4,0.2,0.4
			c0.2,0.1,0.2-0.1,0.3-0.2c0.3-0.2,0.5-0.5,0.8-0.7c0.7-0.4,1.3,0,1.4,0.8c0,0.3,0,0.6,0,0.9c0,0.2,0,0.3,0.1,0.4
			c0.2,0.1,0.2-0.1,0.3-0.2c0.2-0.2,0.4-0.5,0.9-0.6c-0.3,0.6-0.9,0.8-0.9,1.6c0.4-0.3,0.7-0.5,1-0.7c0.8-0.6,1.7-1.1,2.6-1.6
			c0.1-0.1,0.3-0.3,0.4-0.1c0.2,0.3,0.4,0.2,0.6,0.2c1.4,0,2.8,0,4.2,0c0.3,0,0.5,0,0.7-0.2c0.3-1,0.8-2,1.2-3
			c0.4-0.9,0.3-1.2-0.4-1.9c-0.3-0.3-0.6-0.6-0.9-1c0,0,0.1-0.1,0.1-0.1c0.8,0.7,1.5,1.4,2.3,2.1c-0.2,0.1-0.4,0.3-0.5,0.5
			c-0.5,1.1-1.1,2.1-1.6,3.2c-0.1,0.2,0,0.3,0.1,0.4c1.3-0.2,2.6,0,3.7,0.9c0.2,0.2,0.5,0.3,0.7,0.5c0.4,0.3,0.6,0.2,0.8-0.2
			c0.4-0.8,1.1-1.2,1.9-1.3c0.3-0.1,0.4-0.2,0.5-0.5c0.6-1.2,1.2-2.5,1.8-3.7c0.3-0.6,0.2-1.1-0.1-1.6c-1.3-1.9-2.5-3.9-3.7-5.8
			c-0.3-0.2-0.4-0.6-0.6-1c0.5,0.2,0.6,0.5,0.8,0.8c0.6,0.7,1.2,1.4,1.8,2.1c0.9,1.1,1.7,2.1,2.6,3.2c0.4,0.6,0.5,1.2,0.1,1.9
			c-0.7,1.3-1.3,2.6-2,3.9c-0.3,0.6-0.2,0.8,0.5,0.8c3.1,0,6.3,0,9.4,0c1.2,0,2.2,0.3,3.2,0.8c0.8,0.4,1.6,0.4,2.3-0.3
			c0.5-0.5,1-0.6,1.7-0.7c0.2-0.3-0.2-0.2-0.3-0.4c-1.4,0-2.7-0.6-3.8-1.3c-0.3-0.1-0.5-0.3-0.8-0.6c0.5,0,0.7,0.2,1,0.4
			c0.9,0.4,1.9,0.8,2.9,0.9c1.7,0.2,3.5,0.3,5.1-0.4c0.1-0.1,0.3-0.3,0.3-0.2c0.2,0.1,0,0.3-0.1,0.5c-0.3,1.3-1,2.3-2.2,3
			c-0.5,0.3-1,0.7-1.6,0.2c-0.1-0.1-0.3-0.1-0.5-0.1c-0.5,0-1.1-0.1-1.6,0c-1.4,0.5-2.4-0.3-3.5-0.9c-0.5-0.3-1-0.4-1.6-0.4
			c-3.3,0-6.7,0.1-10,0c-1.5-0.1-2.6,0.2-3.4,1.5c0,0-0.1,0.1-0.1,0.1c-0.2,0.3-0.4,0.4-0.8,0.1c-0.6-0.5-1.2-0.8-1.8-1.2
			c-0.2-0.2-0.5-0.2-0.8-0.2c-2.8,0-5.5,0-8.3,0c-0.2,0-0.4,0-0.6,0.1c-1.3,1-2.7,1.9-3.9,3.1c0-0.3,0-0.5,0-0.8c0-0.9,0-1.9,0-2.8
			c0-0.3-0.1-0.5-0.3-0.7c-0.3-0.2-0.4,0.1-0.6,0.3c-0.2,0.2-0.5,0.5-0.7,0.7c-0.2,0.2-0.4,0.3-0.6,0.1c-0.8-0.6-1.6-1.1-2.3-1.7
			c-0.3-0.3-0.7-0.3-1.1-0.3c-3.9,0-7.7,0-11.6,0c-1,0-1,0-0.7,1c0.3,0.9,0.8,1.7,0.8,2.7c0.1,3.5,0,7,0,10.5c0,0.5-0.2,0.6-0.7,0.7
			c-0.7,0-1.4-0.1-2.1-0.3c-0.3,0-0.6-0.2-0.8,0.1c-0.2,0.3,0.1,0.6,0.3,0.8c0.8,0.8,1.6,1.6,2.4,2.4c0.1,0.1,0.3,0.3,0.4,0.3
			c0.5,0.1,0.5,0.3,0.5,0.7c-0.2,3-0.2,5.9-0.1,8.9c0,0.3-0.1,0.4-0.3,0.6c-0.9,1.3-1.8,2.5-2.6,3.9c-0.1,0.1-0.3,0.3-0.1,0.5
			c0.2,0.2,0.3,0.2,0.6,0.1c1.5-0.7,3.2-1.3,4.7-1.9c2.2-0.8,4.3-1.7,6.5-2.5c2.4-0.8,4.9-1.4,7.4-2.1c1.4-0.4,2.8-0.9,4.3-1.2
			c2.2-0.4,4.4-0.6,6.6-0.9c1.7-0.2,3.4-0.4,4.7-1.6c0.3-0.2,0.6-0.5,0.9-0.7c0.4-0.3,0.8-0.6,1.3-0.8c0,0.4,0,0.8,0,1.1
			c0,0.8,0.1,0.9,0.9,0.9c4.1,0,8.3,0,12.4,0c1,0,1.8-0.3,2.5-0.8c-0.1-0.2-0.5-0.2-0.4-0.5c-0.8,0.6-1.8,0.7-2.8,0.7
			c-3.6,0-7.3,0-10.9,0c-0.2,0-0.4,0-0.5,0c-0.2,0-0.5,0.1-0.6-0.2c-0.1-0.4,0.1-0.6,0.3-0.7c0.9-0.5,1.3-1.3,1.3-2.4
			c-0.1-1.4,0-2.9,0-4.4c0-0.4,0-0.7-0.5-0.6c-0.3,0-0.4-0.2-0.6-0.4c-0.6,0.1-0.7,0.5-0.7,1c0,1.5,0,3,0,4.5c0,0.2,0.1,0.4-0.1,0.6
			c-0.3,0.6-0.9,0.9-1.5,1.2c-0.2,0.3-0.5,0.5-0.8,0.6c-0.4,0.4-0.9,0.7-1.4,1c-0.1,0.1-0.2,0.1-0.3,0.2c-0.1,0.1-0.2,0.2-0.4,0.2
			c-0.3,0.2-0.5,0.1-0.7,0c0,0,0,0,0,0.1c-0.1,0.3-0.3,0.2-0.5,0.2c-0.3,0-0.6,0.1-0.9,0.1c-0.2,0-0.4,0-0.6,0
			c-1.5,0.3-3,0.6-4.5,0.6c-0.3,0.3-0.8,0.1-1.2,0.2c-2.3,0.6-4.6,1.2-7,1.8c-0.9,0.2-1.8,0.5-2.7,0.7c-1,0.3-1.9,0.5-2.9,0.8
			c-0.6,0.2-1.2,0.4-1.8,0.6c-1.3,0.5-2.5,1-3.8,1.5c-1.7,0.7-3.4,1.4-5.3,2c0.6-0.8,1-1.6,1.6-2.3c0.5-0.6,0.8-1.3,0.8-2
			c0-3.2,0-6.4,0-9.6c0-0.3-0.1-0.5-0.3-0.5c0,0-0.1,0-0.1,0c-0.3,0-0.5-0.2-0.6-0.3c-0.5-0.6-1.1-1.2-1.6-1.8
			c0.4-0.1,0.9,0.1,1.4,0.1c0.9,0,1.3-0.3,1.3-1.2c0-2.8,0-5.6,0-8.3c0-0.9,0-1.8,0-2.7c0-0.4-0.1-0.9-0.2-1.3
			c-0.1-0.4-0.3-0.8-0.4-1.3h6.6c1.7,0,3.3,0,5,0c0.3,0,0.6,0,0.8,0.2c0.7,0.5,1.4,1.1,2.1,1.6c0.8,0.6,0.9,0.6,1.6-0.1
			c0.1-0.1,0.2-0.2,0.4-0.5v1.9c0,3,0,6,0,9c0,0.2-0.2,0.6,0.3,0.7c0.4,0.1,0.6-0.2,0.7-0.5c0.1-0.2,0.1-0.5,0.1-0.7
			c0-1.9,0-3.9,0-5.8c0-0.5,0.1-0.8,0.5-1.1c1-0.8,2-1.7,3.1-2.4c0.2-0.2,0.5-0.2,0.8-0.2c2.2,0,4.5,0,6.7,0c0.3,0,0.5,0,0.8,0
			c0.9,0,1.6,0.6,2.4,1c0.3,0.2,0.5,0.4,0.8,0.5c0.4,0.3,0.8,0.2,1.1-0.2c0.3-0.3,0.5-0.7,0.9-1c-0.2,2.7-0.1,5.4-0.2,8
			c0,0.2-0.1,0.3-0.2,0.5c-0.1,0.6,0.4,0.5,0.7,0.6c0.9,0.1,1.3-0.2,1.3-1.1c0.1-1.9,0.1-3.9,0.1-5.8c0-0.5,0-1-0.2-1.5
			c-0.2-0.4-0.4-0.9-0.5-1.4c3.8,0,7.6,0,11.4,0c0.2,0,0.4,0.1,0.6,0.2c0.8,0.4,1.5,0.9,2.3,1.2c0.5,0.2,0.6,0.5,0.2,0.9
			c-0.1,0.1-0.2,0.3-0.2,0.4c-0.5,1.3-0.6,2.7-0.6,4.1c0.3,0,0.6,0,0.9,0c0.1,0,0.1,0,0.2,0c0.3-0.2,0.7-0.1,1.1-0.2
			c0.3,0,0.5-0.1,0.8-0.1c0.2,0,0.4-0.3,0.4,0.1c-0.1,0.9,0.2,1.9-0.2,2.8c-0.1,0.1,0,0.3,0.1,0.4c0.5,0.3,1.1,0.2,1.6,0.1
			c0.3,0,0.4-0.4,0.4-0.7c0-1.2,0-2.4,0-3.7c0-0.5,0.2-0.6,0.6-0.7c0.8-0.2,1.5-0.2,2.3,0c0.2,0,0.4,0.1,0.6,0.1
			c0.2,0,0.4,0,0.6-0.1c0.5-0.2,0.9-0.6,1.3-1c0.7-1,1.4-2,2-3c0.2-0.3,0.4-0.4,0.7-0.4c1,0,1.9,0,2.9,0.2c0.5-0.2,0.8-0.1,1,0.4
			c0.2,0.4,0.4,0.3,0.7,0.2c0.3-0.1,0.3-0.4,0.2-0.6c-0.1-0.3-0.4-0.6,0-0.8c0.3-0.2,0.5,0.1,0.7,0.4c0.3,0.4,0.7,0,1.1,0.1
			c0.1,0,0.1,0,0.1,0c0.1-0.1,0-0.3,0-0.4c0-0.4,0.2-0.7,0.6-0.7c0.4,0,0.6-0.2,0.5-0.6c0-0.3,0.1-0.4,0.4-0.5
			c0.2-0.1,0.3-0.1,0.4-0.3c0.2-0.5,0.5-0.5,0.9-0.1c0.6-0.2,1.1-0.4,1.7-0.7c1.8-0.8,2.2-2.7,1.9-4.2c-0.1-0.4-0.2-0.4-0.5-0.2
			c-0.5,0.4-0.9,0.8-1.4,1.4c0-0.9,0.4-1.5,1-2c0.3-0.3,0.6-0.6,0.5-1.2c0.9,1,1.9,1.7,3,2.1c0.1,0,0.2,0.1,0.1,0.3
			c-1,2.1-2.1,4-4.3,5c-1.3,0.6-2.4,1.4-3.5,2.2c-0.7,0.5-1.4,1.1-1.9,1.8c0.3,0.6,0,0.8-0.6,1c0,0,0,0,0,0h0c0.3,0,0.5,0,0.7,0
			c0.3-0.2,0.5-0.4,0.8-0.6c0,0,0.1-0.1,0.1-0.1c0.2-0.3,0.5-0.5,0.8-0.6c0.3-0.4,0.7-0.6,1.1-0.9c0.2-0.1,0.3-0.3,0.5-0.4
			c0.2-0.1,0.4-0.3,0.5-0.4c0.8-0.6,1.6-1.1,2.5-1.6c0.2-0.1,0.5-0.2,0.7-0.2c1.4,0,2.8,0,4.2,0c0.3,0,0.6,0.1,0.8,0.3
			c0.8,0.8,1.6,1.5,2.4,2.2c0.7,0.6,0.9,0.6,1.6,0c0.1-0.1,0.2-0.2,0.4-0.2c0,3.7,0,7.3,0,11c0,0.3-0.1,0.5-0.2,0.6
			c-0.2,0.7,0,0.9,0.6,0.9c0.2,0,0.6-0.2,0.7,0.2c0.1,0.4,0.2,0.8-0.3,1.1c-0.2,0.1-0.3,0.3-0.6,0.3c-0.1,0-0.1,0-0.2,0
			c-0.1,3-0.1,6,0,9c0,0.1,0,0.2-0.1,0.2c-0.1,0.1-0.1,0.2-0.3,0.2c0,0,0,0,0,0c-1.1,1.1-2.5,1.7-3.7,2.5c-0.4,0.2-1,0.2-1.6,0
			c-2.4-0.8-4.8-1.7-7.3-2.5c-0.3-0.1-0.5-0.3-0.7-0.5c-0.2-0.2-0.3-0.3-0.5-0.5c-0.8-0.8-1.6-1.6-2.3-2.3c-0.6-0.6-0.8-0.5-1.2,0.2
			c-0.5,1.1-0.7,1.5-1.4,1.5c-0.3,0-0.6-0.1-1.2-0.1c-2.4-0.4-4.8-0.8-7.2-1.2c-0.2,0-0.3-0.1-0.5-0.1c0,0-0.1,0-0.1,0
			c-0.2,0-0.4,0-0.6-0.1c0,0,0,0,0,0c-0.1,0-0.1,0-0.2,0c-0.2,0-0.5,0.1-0.5-0.2c-0.3,0.2-0.5,0.2-0.8,0c-0.2,0-0.5,0-0.7,0
			c-0.2,0-0.3,0-0.5,0c-0.1,0-0.2,0-0.3,0c0.2,0.2,0.5,0.3,0.4,0.6c0.1,0,0.2,0.1,0.3,0.1c1.2,0.2,2.4,0.4,3.6,0.6
			c1.9,0.3,3.8,0.6,5.7,0.9c1,0.2,2.1,0.3,3.1,0.2c0.3,0,0.4-0.1,0.6-0.3c0.5-0.4,0.7-1.1,0.9-1.4c1.1,1,2.1,1.9,3.2,2.9
			c0.3,0.2,0.5,0.4,0.8,0.5c2.4,0.8,4.8,1.6,7.3,2.3c0.8,0.2,1.7,0.3,2.4-0.3c1.1-0.8,2.2-1.6,3.3-2.4c0.5-0.3,0.6-0.7,0.6-1.2
			c0-2.5,0-5.1,0-7.6c0-0.3,0.1-0.6,0.3-0.7C-283.3,667.2-283.1,666.8-283.2,666.1z M-356.2,616c-0.1,0-0.1,0-0.3,0
			c0.2-0.1,0.3-0.3,0.4-0.2C-355.9,615.9-356.1,616-356.2,616z M-355.5,615.9c0-0.3,0.2-0.3,0.3-0.3c0.5,0,0.9-0.2,1.4,0.1
			C-354.4,616-354.9,615.7-355.5,615.9z M-350.7,651.9c-0.1,0-0.1-0.1-0.1-0.1c0-0.1,0.1-0.1,0.2-0.1c0.1,0,0.1,0,0.2,0.1
			C-350.6,651.8-350.7,651.8-350.7,651.9z M-346.4,633.2c-0.1,0.2,0,0.5-0.2,0.6c0,0,0,0.1,0,0.1c0,0.1-0.1,0.1-0.1,0
			c0.1-1.1-0.1-2.2,0.1-3.2c0-1.3,0-2.5,0-3.8c0-0.3,0-0.5-0.1-0.8c-0.5-1-0.9-2-1.3-3.1c-0.1-0.3-0.2-0.5-0.4-0.8
			c0.4,0,0.4,0.3,0.5,0.5c0.6,1,1.3,2,1.9,3.1c0.1,0.2,0.1,0.4,0.1,0.6c0,0.7,0,1.5,0,2.2C-345.7,630.2-345.9,631.7-346.4,633.2z
			 M-342.6,608.4c0,0-0.1-0.1,0-0.2c0.1-0.1,0.3-0.1,0.4,0C-342.3,608.4-342.4,608.4-342.6,608.4z M-341.4,635.2
			c-0.1,0-0.1-0.1-0.1-0.1c0.1-0.1,0.1-0.1,0.2-0.2c0,0,0,0.1,0.1,0.1C-341.3,635.1-341.4,635.2-341.4,635.2z M-341,634.8
			c0-0.2,0.1-0.3,0.3-0.3c0,0,0.1,0.1,0.1,0.1C-340.8,634.7-340.9,634.9-341,634.8z M-339.8,633.8c0.3-0.2,0.5-0.3,0.6-0.4
			C-339.2,633.8-339.4,633.9-339.8,633.8z M-334.9,664.6c0.2,0,0.4,0.1,0.4,0.4c0,0.1,0,0.1,0,0.2c0,1.5-0.1,2.9-0.1,4.4
			c0,0.4-0.1,0.6-0.4,0.7c0-1.8,0-3.6,0-5.3C-335.1,664.9-335.2,664.6-334.9,664.6z M-334.5,655.4c0,1.7,0,3.5,0,5.2
			c0,0.2,0,0.3,0,0.5c0,0.2-0.1,0.3-0.4,0.3c-0.3,0-0.2-0.2-0.2-0.4v-8C-334.6,653.9-334.4,654.6-334.5,655.4z M-319.7,655.7
			c0.5-1.8,1.1-2.5,3-1.9C-318.1,654.2-318.8,654.6-319.7,655.7z M-316.6,661.5c-0.2,0-0.4,0-0.4-0.3c0-0.9,0-1.7,0-2.6
			c0-0.5,0.4-0.6,0.8-0.9c0,1.1,0,2.3,0,3.4C-316.2,661.5-316.3,661.5-316.6,661.5z M-336.6,626.8v1.4c0,0.2,0,0.5,0,0.7
			c-0.2-0.1-0.1-0.3-0.2-0.4C-336.9,627.9-336.9,627.4-336.6,626.8z M-333.9,631.6c-0.3,0.3-0.5,0.2-0.7,0c-0.4-0.4-0.7-0.3-1.2,0
			c-0.8,0.5-1.6,1-2.4,1.5c-0.2,0.1-0.3,0.3-0.6,0.1c0.5-0.4,1.1-0.8,1.6-1.2c0.6-0.5,1.2-0.9,1.9-1.4c0.2-0.1,0.3-0.2,0.2-0.5
			c-0.7-1.2-0.6-2.5-0.7-3.8c-0.1-0.9,0.1-1.8-0.1-2.8c2.4,1.1,4.8,2.2,7.2,3.3C-330.6,628.5-332.2,630.1-333.9,631.6z
			 M-307.8,650.4c0,0.2-0.1,0.3-0.1,0.5c-0.1-0.2-0.1-0.4,0-0.6c0-0.1,0-0.3,0.1-0.4c0-0.9,0.3-1.8,0-2.7c-0.3-1.2-1-1.9-2.3-2
			c-0.5,0-0.9,0-1.4,0c-1.1,0.2-2-0.3-2.9-0.7c-0.2-0.1-0.3-0.1-0.5-0.2c0.3-0.2,0.5-0.1,0.7,0c0.2,0,0.4,0,0.4-0.2
			c0.1-0.2-0.2-0.2-0.3-0.3c-0.7-0.8-1.3-1.5-1.7-2.4c-0.7-1.8-2.1-2.5-3.9-2.6c-0.1,0-0.1,0-0.2,0c1.4-0.4,3.7,0.4,4.4,1.7
			c1.3,2.5,3.5,3.6,6.1,4.2c0.3,0.1,0.6,0.1,0.9,0.2c1.1,0.3,1.5,0.9,1.5,2c0,1-0.2,2.1-0.6,3C-307.6,650.1-307.7,650.2-307.8,650.4
			z M-306.1,650.8c-0.3,0.4-0.6,0.7-0.9,1.1c-0.1,0.1-0.3,0.2-0.4,0.1c-0.1-0.1,0-0.2,0.1-0.3c0.2-0.3,0.3-0.7,0.5-1
			c1.2-2,0.8-4,0.2-6c-0.1-0.2-0.2-0.4-0.2-0.6c-0.2-0.3-0.3-0.5-0.5-0.8c0.4,0.1,0.5,0.3,0.6,0.6c0.5,0.3,0.3-0.2,0.4-0.4
			c0.1-0.8,0.1-1.7,0.5-2.5c0-0.2,0.1-0.4,0.3-0.5c0.1,0.3,0,0.5-0.2,0.8c-0.6,1.9-0.2,3.7,0.4,5.5
			C-304.9,648.3-305.3,649.6-306.1,650.8z M-300.2,629.2c-2.7-1.4-5.3-2.9-8.1-4c-1.6-0.7-3.2-1.3-4.9-1.7c-0.5-0.1-0.8,0.1-0.9,0.6
			c-0.2,0.9-0.1,1.7,0.5,2.4c0.5,0.7,1,1.4,1.4,2c0.7,1,1,2.1,0.8,3.3c0,0.1-0.1,0.2-0.2,0.3v-1.9c-0.7-1-1.5-1.9-2.5-2.7
			c-1.2-1-1.6-2.3-1.4-3.8c0-0.2,0.1-0.4-0.1-0.4c-0.2-0.1-0.2,0.1-0.3,0.3c-0.6,1-1.3,2-1.6,3.1c0,0.2,0,0.4-0.2,0.6
			c0-0.4,0-0.8,0.1-1.1c0.1-0.7,0.3-1.5,0.6-2.2c0.1-0.2,0.3-0.4,0.1-0.6c-0.2-0.1-0.4-0.1-0.6,0c-1.1,0.3-2.1,0.5-3.2,1
			c-2.7,1.1-5.3,2.5-7.9,4c-0.1,0.1-0.3,0.2-0.4,0.2c-0.1,0.2-0.3,0.3-0.5,0.3c0.1-0.3,0.3-0.4,0.5-0.5c3.1-2.6,6.4-4.7,10.3-5.8
			c2.3-0.6,4.5-0.5,6.7,0.2c4.4,1.4,8.4,3.5,12.1,6.2c0.3,0.1,0.5,0.3,0.8,0.6C-299.7,629.6-299.9,629.4-300.2,629.2z M-294.5,640.9
			c-0.6-0.8-0.8-1.6-0.7-2.6c0.1-0.7,0.6-1.1,1.2-1c0.5,0.1,0.8,0.7,0.6,1.1c-0.5,0.5-0.3,1-0.1,1.5c0.4,1,1.1,1.7,2,2.2
			c1.4,0.8,2.8,1.7,4.1,2.7c0.6,0.5,1.3,0.9,1.6,1.7c0,0,0,0,0,0c0,0,0,0,0,0c0.3,0,0.3,0.2,0.4,0.5c-0.2-0.2-0.4-0.2-0.4-0.5h0
			c0,0,0,0,0,0c-0.7-0.3-1.2-0.9-1.8-1.2c-0.5-0.3-1.1-0.5-1.7-0.7C-291.5,644.1-293.2,642.7-294.5,640.9z"/>
		<path class="st1" d="M-284.2,651.8c-0.1,0-0.1,0-0.2,0c-0.6,0-1,0.5-1.4,0.8c-0.3,0.3-0.5,0.2-0.8,0c-0.8-0.8-1.6-1.5-2.4-2.3
			c-0.2-0.2-0.5-0.3-0.8-0.4c-1,0-2,0-2.9-0.1c-0.1,0-0.2,0-0.3,0h0c0,0,0,0,0,0h0c-0.1,0-0.3,0-0.4,0c1.1-1.2,2-2.5,2.5-4
			c0.1-0.3,0.2-0.3,0.4-0.2c1.6,0.5,3.1,1,4.3,2.2c0.8,0.7,1.1,1.8,1.6,2.7C-284.6,650.9-284.3,651.3-284.2,651.8z"/>
		<path class="st0" d="M-285.2,666c0,0-0.1,0-0.1-0.1c-0.3-0.2-0.7-0.5-0.7-0.8c0-0.4,0.5-0.3,0.7-0.5c0.1-2.3,0-4.7-0.1-7
			c0-1,0-2,0-2.9c0-0.4,0-0.7-0.5-0.3c-0.3,0.2-0.5,0-0.7-0.2c-0.9-0.8-1.7-1.6-2.5-2.4c-0.3-0.4-0.7-0.5-1.2-0.5
			c-1.2,0-2.4,0.1-3.7,0c-0.9-0.1-1.6,0.2-2.3,0.7c-0.3,0.2-0.6,0.4-1,0.6c-0.1,0.2-0.3,0.3-0.5,0.4c-0.1,0.2-0.3,0.3-0.5,0.4
			c-0.4,0.3-0.8,0.6-1.1,0.9c-0.2,0.2-0.5,0.5-0.8,0.6c0,0-0.1,0.1-0.1,0.1c-0.7,0.5-0.7,1.4-0.7,2.2c0,0.4,0,0.8,0,1.2
			c0,1.2,0.1,2.4,0.1,3.7c0,1-0.6,1.6-1.6,1.4c-0.1,0-0.2-0.1-0.3,0c-0.1,0.1,0,0.2,0,0.3c0.3,0.7,0.9,1.1,1.7,1
			c0.3,0,0.3,0.1,0.3,0.3c-0.1,1.6,0,3.2,0,4.9c0,0.6,0,1.3,0,1.9c0,0.1,0,0.3-0.1,0.4c-0.6,0.4-0.2,0.7,0.1,1
			c0.7,0.6,1.3,1.2,1.9,1.9c0.1,0.1,0.2,0.2,0.3,0.3c0.7,0.7,1.6,1.1,2.7,1.4c2.2,0.6,4.3,1.4,6.4,1.9c0.4,0.1,0.6,0.1,1-0.1
			c1.1-0.7,2.1-1.5,3.3-2.1c0.2-0.2,0.1-0.5,0.1-0.7c0-2.5,0-5.1,0-7.6c0-0.2,0-0.4,0-0.6c0-0.1,0.1-0.2,0.2-0.3c0,0,0-0.1,0-0.1
			c0,0,0,0,0.1-0.1c0.1-0.1,0.2-0.1,0.3-0.2c0,0,0,0,0,0C-284.3,666.3-284.5,666.1-285.2,666z M-291.5,671.4c0,1.4-0.5,1.8-1.9,1.6
			c-0.9-0.2-1.5-0.6-2-1.4c-0.1-0.2-0.2-0.4,0.1-0.4c0.6-0.1,0.5-0.5,0.5-0.9c0-4.4,0-8.9,0-13.3c0-1.2,0.5-1.5,1.6-1
			c0.5,0.2,0.9,0.1,1.2-0.5c0.3,0.8,0.5,1.5,0.5,2.3C-291.5,662.3-291.5,666.8-291.5,671.4z"/>
		<path class="st1" d="M-285.4,647.1c-0.2-0.2-0.4-0.2-0.4-0.5C-285.5,646.5-285.5,646.8-285.4,647.1z"/>
		<path class="st2" d="M-285.8,646.5C-285.8,646.5-285.8,646.5-285.8,646.5C-285.8,646.5-285.8,646.5-285.8,646.5L-285.8,646.5z"/>
		<path class="st3" d="M-285.8,646.5L-285.8,646.5C-285.8,646.5-285.8,646.5-285.8,646.5C-285.8,646.5-285.8,646.5-285.8,646.5z"/>
		<path class="st1" d="M-285.8,646.5c-0.7-0.3-1.2-0.9-1.8-1.2c-0.5-0.3-1.1-0.5-1.7-0.7c-2.2-0.6-3.9-2-5.2-3.8
			c-0.6-0.8-0.8-1.6-0.7-2.6c0.1-0.7,0.6-1.1,1.2-1c0.5,0.1,0.8,0.7,0.6,1.1c-0.5,0.5-0.3,1-0.1,1.5c0.4,1,1.1,1.7,2,2.2
			c1.4,0.8,2.8,1.7,4.1,2.7C-286.8,645.3-286.1,645.7-285.8,646.5z"/>
		<path class="st4" d="M-323.8,677.4l-0.6,1.8l1,0L-323.8,677.4z M-323.8,677.4l-0.6,1.8l1,0L-323.8,677.4z M-289.3,683.5
			c-1-0.1-1.9,0.2-2.9-0.2c-2.3-0.8-4.6-1.6-6.9-2.4c-0.5-0.2-1.1-0.3-1.6-0.6c1.3-0.8,1.5-1.7,0.9-2.7c-1,0.7-1.1,0.8-2.3,0.5
			c-1.3-0.3-2.5-0.6-3.8-1c-2.9-0.8-5.8-1.2-8.7-1.6c-3.2-0.5-6.4-0.8-9.7-0.9c-3.9-0.1-7.8,0-11.7,0.3c-3.2,0.2-6.3,0.7-9.4,1.1
			c-3.1,0.4-6.1,1.2-9.1,2c-0.8,0.2-1.6,0.5-2.2-0.3c-0.1-0.2-0.2-0.1-0.3,0.1c-0.2,0.6-0.2,1.2,0.2,1.8c0.2,0.3,0.6,0.5,0.9,0.7
			c-0.1,0.1-0.2,0.1-0.3,0.1c-2.9,1-5.9,2-8.8,3c-0.3,0.1-0.6,0.1-0.9,0.1c-0.8-0.1-1.5-0.1-2.3,0c0.1,0.1,0.1,0.2,0.1,0.2
			c2.4,0.9,4.8,1.7,7.1,2.6c0.3,0.1,0.5,0.3,0.7,0.6c0.6,1.2,1.2,2.3,1.9,3.5c0.2,0.4,0.4,0.5,0.8,0.4c1.3-0.3,2.5-0.6,3.8-0.8
			c1.9-0.4,3.9-0.8,5.8-1.2c0.2,0,0.3-0.1,0.4-0.2c0.1-0.2-0.1-0.2-0.2-0.3c-0.2-0.3-0.7-0.4-0.7-0.8c0-0.9,0-1.7,0-2.7
			c0.6,0.5,1.1,0.9,1.9,0.7c1.8-0.4,3.7-0.5,5.5-0.8c2-0.2,4-0.4,6-0.6c4.5-0.4,9.1-0.5,13.6-0.1c2.2,0.2,4.5,0.4,6.7,0.7
			c1.3,0.1,2.6,0.4,3.9,0.5c1,0.1,2,0.7,2.9-0.6c0,0.9,0,1.5,0,2.2c0.1,0.6-0.1,1-0.6,1.4c-0.2,0.1-0.4,0.2-0.4,0.5
			c0.1,0.3,0.4,0.3,0.7,0.3c3.2,0.6,6.4,1.2,9.6,1.8c0.4,0.1,0.6,0,0.7-0.4c0.6-1.3,1.2-2.5,1.8-3.7c0.1-0.3,0.3-0.4,0.5-0.5
			c1.5-0.5,3-0.9,4.6-1.4c1-0.3,2-0.6,3.1-1C-288.6,683.4-289,683.5-289.3,683.5z M-355.6,686.3l-1.1,1.2l-0.2-1.6l-1.5-0.7l1.5-0.7
			l0.2-1.6l1.1,1.2l1.6-0.3l-0.8,1.4l0.8,1.4L-355.6,686.3z M-342.3,683.1c-0.3,0.4-0.6,0.7-1.1,0.8c-0.5,0.1-1,0-1.6-0.3
			c0,0.1,0,0.2,0,0.2c0,0.1,0.1,0.2,0.1,0.3l-1.2,0.3l-0.5-2.1l1.3-0.3c0.2,0.6,0.6,0.9,1.2,0.7c0.5-0.1,0.6-0.3,0.6-0.7
			c-0.1-0.4-0.3-0.5-0.6-0.4c-0.3,0.1-0.4,0.2-0.4,0.5c-0.2-0.3-0.3-0.4-0.5-0.5c-0.1,0-0.3,0-0.5,0c-0.1,0-0.2,0-0.3,0
			s-0.1,0-0.2,0c-0.6-0.2-1-0.7-1.3-1.7c-0.2-0.9-0.1-1.7,0.2-2.3c0.3-0.5,0.7-0.8,1.2-0.9c0.5-0.1,1,0,1.4,0.3c0-0.1,0-0.2-0.1-0.4
			l1-0.2l0.5,2.3l-1.1,0.3c-0.1-0.5-0.3-0.8-0.5-0.9c-0.2-0.1-0.4-0.1-0.7-0.1c-0.4,0.1-0.6,0.4-0.5,0.7c0.1,0.4,0.4,0.6,0.7,0.5
			c0.2,0,0.3-0.2,0.4-0.4c0.1,0.3,0.4,0.4,0.7,0.4c0.1,0,0.1,0,0.2,0c0.1,0,0.2,0,0.4,0c0.3,0.1,0.6,0.3,0.8,0.5
			c0.2,0.3,0.4,0.6,0.5,1.2C-341.9,681.8-342,682.6-342.3,683.1z M-333.7,678.3c0,0,0,0.1,0,0.1c0,0.1,0.1,0.1,0.1,0.2
			c0,0.1,0.1,0.1,0.1,0.2c0,0.1,0.1,0.1,0.1,0.1c-0.2,0.1-0.3,0.3-0.3,0.6c0,0,0,0.3,0,0.7c0,0.5,0,0.8,0.1,0.8
			c0.1,0.2,0.2,0.3,0.5,0.3c0,0,0.1,0,0.1,0s0.1,0,0.1,0l0,1.2l-3,0.1l0-1.2c0.3,0,0.4,0,0.4,0c0.2,0,0.3-0.2,0.3-0.4l0-0.7
			c0-0.4,0-0.7,0-0.8c0-0.2-0.1-0.4-0.3-0.5c0.2-0.3,0.3-0.5,0.3-0.6l-0.1-1.7c0,0,0,0-0.1,0c-0.2,0-0.3,0.1-0.3,0.3l0,1.3l-1.2,0
			l-0.1-2.9l4.8-0.2l0.1,2.9l-1.2,0l0-1.2c0-0.1,0-0.2-0.1-0.3c-0.1-0.1-0.1-0.1-0.1-0.1l-0.2,0L-333.7,678.3z M-320.6,682.7l-3-0.1
			l0-1.2c0.1,0,0.2,0,0.2,0c0.1,0,0.1,0,0.1,0c0.1-0.1,0.2-0.2,0.2-0.4c0-0.1,0-0.3-0.1-0.4l-1.6-0.1c-0.1,0.2-0.1,0.4-0.1,0.5
			c0,0.3,0.1,0.4,0.3,0.4l0.4,0l0,1.2l-2.5-0.1l0-1.2c0,0,0.1,0,0.1,0c0,0,0.1,0,0.2,0c0.2,0,0.3-0.1,0.4-0.4c0-0.1,0.1-0.2,0.1-0.3
			c0-0.1,0.1-0.3,0.1-0.5c0.1-0.5,0.2-0.8,0.2-0.9c0-0.2,0-0.3-0.1-0.4c0.2,0,0.4-0.3,0.6-1c0.2-0.5,0.3-0.9,0.3-1.2
			c-0.1-0.1-0.2-0.2-0.2-0.2l-0.5,0l0-1.2l3.9,0.1l0,1.2c-0.1,0-0.1,0-0.2,0c0,0-0.1,0-0.1,0c-0.1,0-0.2,0.1-0.3,0.2
			c0,0.5,0.1,0.9,0.2,1.3c0.2,0.6,0.3,0.9,0.5,0.9c-0.1,0.1-0.1,0.3-0.1,0.6c0,0.2,0,0.5,0.1,1c0.1,0.5,0.2,0.8,0.3,0.9
			c0.1,0,0.2,0.1,0.5,0.1L-320.6,682.7z M-310.4,679.7c-0.1,0.1-0.2,0.3-0.3,0.4c-0.3,0.4-0.6,0.6-0.8,0.6c0.1,0.1,0.3,0.2,0.4,0.4
			c0.2,0.3,0.3,0.5,0.2,0.8l-0.2,0.9c0,0.1,0,0.2,0.1,0.3c0.1,0.1,0.1,0.1,0.2,0.1c0,0,0,0,0.1,0l-0.2,1.2l-1.5-0.3
			c-0.1,0-0.3-0.1-0.4-0.4c-0.1-0.2-0.2-0.4-0.1-0.7l0.2-1.2c0-0.1,0-0.3-0.1-0.5s-0.2-0.2-0.3-0.3l-0.7-0.1l-0.2,1
			c0,0.3,0,0.5,0.1,0.5c0,0,0.1,0,0.4,0.1l-0.2,1.2l-2.9-0.5l0.2-1.2c0.4,0.1,0.6,0,0.7-0.2c0-0.1,0.1-0.3,0.2-0.9
			c0.1-0.4,0.1-0.7,0.1-0.8c0-0.3-0.1-0.4-0.2-0.6c0.2,0,0.3-0.2,0.4-0.5c0,0,0.1-0.3,0.1-0.7c0.1-0.5,0.1-0.7,0.1-0.8
			c0-0.2-0.1-0.3-0.4-0.3c0,0-0.1,0-0.1,0c0,0-0.1,0-0.2,0l0.2-1.2l3.8,0.6c0.3,0,0.6,0.2,0.8,0.5c0.3,0.4,0.5,0.9,0.5,1.5
			c0,0.1,0,0.2,0.1,0.3C-310.2,679.4-310.3,679.6-310.4,679.7z M-301.4,685.8l-0.5,1.6l-0.9-1.3l-1.6,0l1-1.3l-0.5-1.5l1.5,0.5
			l1.3-1l0,1.6l1.3,0.9L-301.4,685.8z M-312.4,678.1l-0.7-0.1l-0.3,1.7l0.7,0.1c0.1,0,0.2-0.1,0.4-0.3c0.1-0.2,0.2-0.3,0.2-0.6
			c0-0.2,0-0.4,0-0.6C-312.2,678.2-312.3,678.1-312.4,678.1z M-324.4,679.2l1,0l-0.4-1.9L-324.4,679.2z"/>
		<path class="st1" d="M-291.5,671.4c0,1.4-0.5,1.8-1.9,1.6c-0.9-0.2-1.5-0.6-2-1.4c-0.1-0.2-0.2-0.4,0.1-0.4
			c0.6-0.1,0.5-0.5,0.5-0.9c0-4.4,0-8.9,0-13.3c0-1.2,0.5-1.5,1.6-1c0.5,0.2,0.9,0.1,1.2-0.5c0.3,0.8,0.5,1.5,0.5,2.3
			C-291.5,662.3-291.5,666.8-291.5,671.4z"/>
		<path class="st1" d="M-291.6,645.3c-1,2.1-2.1,4-4.3,5c-1.3,0.6-2.4,1.4-3.5,2.2c-0.7,0.5-1.4,1.1-1.9,1.8c0,0,0,0-0.1,0
			c0,0,0,0,0,0c0,0,0,0,0,0c-0.1,0-0.1,0.1-0.2,0.1c-0.3,0.4-0.6,0.3-0.8-0.1c-0.2-0.4-0.3-0.8-0.3-1.2v0c0-0.1,0-0.3,0-0.4v0
			c0,0,0-0.1,0-0.1c0.2,0,0.2,0.2,0.3,0.2c0.4,0.5,1,0.5,1.4,0c0.4-0.5,0.8-1,1.3-1.5c0.5-0.5,1-1,1.6-1.4c0,0,0,0,0,0c0,0,0,0,0,0
			c0,0,0,0,0,0c0,0,0,0,0-0.1c0.6-0.2,1.1-0.4,1.7-0.7c1.8-0.8,2.2-2.7,1.9-4.2c-0.1-0.4-0.2-0.4-0.5-0.2c-0.5,0.4-0.9,0.8-1.4,1.4
			c0-0.9,0.4-1.5,1-2c0.3-0.3,0.6-0.6,0.5-1.2c0.9,1,1.9,1.7,3,2.1C-291.7,645.1-291.6,645.1-291.6,645.3z"/>
		<path class="st5" d="M-292.7,649.9c-0.3,0.1-0.5,0.1-0.8,0c0.1,0,0.3,0,0.4,0h0c0,0,0,0,0,0h0
			C-292.9,649.8-292.8,649.8-292.7,649.9z"/>
		<path class="st5" d="M-293.5,649.9c0.3,0.1,0.5,0.1,0.8,0c-0.3,0.1-0.5,0.1-0.8,0.1C-293.5,650-293.6,649.9-293.5,649.9
			C-293.6,649.9-293.5,649.9-293.5,649.9z"/>
		<path class="st6" d="M-298,649.9C-298,649.9-298,649.9-298,649.9C-298,649.9-298,650-298,649.9C-298,649.9-298,649.9-298,649.9
			C-298,649.9-298,649.9-298,649.9z"/>
		<path class="st0" d="M-298,649.9C-298,649.9-298,649.9-298,649.9C-298.1,649.9-298.1,649.9-298,649.9c-0.4,0-0.6,0-0.8,0.2
			c-0.3,0.3-0.8,0.5-0.9,1c0,0.1,0,0.1-0.1,0.1c-0.1,0.1-0.2,0.1-0.3,0.1c-0.4,0.1-0.6,0.3-0.7,0.8c0,0.1-0.1,0.2-0.1,0.2l0,0
			c0.1-0.1,0-0.3,0-0.4c0-0.4,0.2-0.7,0.6-0.7c0.4,0,0.6-0.2,0.5-0.6c0-0.3,0.1-0.4,0.4-0.5c0.2-0.1,0.3-0.1,0.4-0.3
			C-298.6,649.5-298.3,649.5-298,649.9z"/>
		<path class="st0" d="M-298.1,649.9c-0.6,0.4-1.1,0.9-1.6,1.4l0,0c0,0,0.1-0.1,0.1-0.1c0.1-0.6,0.6-0.7,0.9-1
			C-298.5,649.9-298.3,649.8-298.1,649.9z"/>
		<path class="st0" d="M-299.7,651.3c-0.5,0.5-0.9,1-1.3,1.5c-0.4,0.5-1,0.5-1.4,0c-0.1-0.1-0.1-0.2-0.3-0.2c0,0,0,0.1,0,0.1
			c0,0,0,0,0,0c0-0.2-0.2-0.4,0-0.5c0.2-0.1,0.3,0.1,0.4,0.2c0.3,0.3,1.1,0.3,1.4,0c0.1-0.1,0.1-0.1,0.1-0.2
			c0.1-0.4,0.3-0.7,0.7-0.8C-299.9,651.4-299.8,651.3-299.7,651.3L-299.7,651.3z"/>
		<path class="st0" d="M-300.8,652.4c-0.3,0.3-1.1,0.3-1.4,0c-0.1-0.1-0.2-0.3-0.4-0.2c-0.2,0.1-0.1,0.3,0,0.5c0,0,0,0,0,0v0
			c0,0.1,0,0.3,0,0.4v0c0,0.2-0.1,0.3-0.3,0.4c-0.3,0.1-0.6,0.1-0.8-0.2c0,0,0,0,0,0c-0.2-0.3-0.4-0.4-0.8-0.3
			c-0.1,0-0.1-0.1-0.2-0.1c0.5-0.2,0.8-0.1,1,0.4c0.2,0.4,0.4,0.3,0.7,0.2c0.3-0.1,0.3-0.4,0.2-0.6c-0.1-0.3-0.4-0.6,0-0.8
			c0.3-0.2,0.5,0.1,0.7,0.4c0.3,0.4,0.7,0,1.1,0.1C-300.9,652.4-300.9,652.4-300.8,652.4L-300.8,652.4z"/>
		<path class="st1" d="M-301,664.9c-0.1,1.6,0,3.2,0,4.9l-0.3,0c0-0.1,0-0.2-0.1-0.2c-0.2-0.1-0.3,0.1-0.4,0.2
			c-1.1,0.6-2.2,0.6-3.4,0.5c-1.3-0.1-2.5-0.5-3.8-0.5c-0.2,0-0.5,0-0.6-0.2c-0.1-0.3,0.2-0.3,0.4-0.4c0.3-0.1,0.3-0.4,0.3-0.6
			c0-0.8,0-1.6,0-2.4c0-0.6,0.3-0.6,0.7-0.5c0.8,0.3,1.7,0.6,2.5,1c0.3,0.1,0.4,0.1,0.4-0.2c0-1.9,0-3.7,0-5.6
			c0-0.1-0.1-0.1-0.1-0.2c-0.1,0-0.1,0-0.2,0.1c-0.4,0.9-1.1,1-1.9,1c-0.8,0-1.5,0-2.3,0c0-0.1,0-0.1,0-0.1c0.7-0.5,0.8-1.1,0.7-1.9
			c0-0.6,0-1.2,0-1.7c0-0.5,0.2-0.5,0.6-0.6c2.3-0.3,4.4,0.5,6.6,1.2c0.2,0.1,0.4,0.3,0.6,0c0,0,0-0.1,0-0.1l0.1,0c0,0,0,0,0,0
			c0,0,0-0.1,0-0.1l0.1,0c0,1.2,0.1,2.4,0.1,3.7c0,1-0.6,1.6-1.6,1.4c-0.1,0-0.2-0.1-0.3,0c-0.1,0.1,0,0.2,0,0.3
			c0.3,0.7,0.9,1.1,1.7,1C-301,664.6-301,664.7-301,664.9z"/>
		<path class="st6" d="M-301.2,658.3c0,0,0,0.1,0,0.1C-301.3,658.4-301.3,658.4-301.2,658.3c0,0,0-0.1,0-0.2
			C-301.3,658.2-301.2,658.3-301.2,658.3z"/>
		<path class="st0" d="M-301.3,669.8c0-0.1,0-0.2-0.1-0.2c-0.2-0.1-0.3,0.1-0.4,0.2c-1.1,0.6-2.2,0.6-3.4,0.5
			c-1.3-0.1-2.5-0.5-3.8-0.5c-0.2,0-0.5,0-0.6-0.2c-0.1-0.3,0.2-0.3,0.4-0.4c0.3-0.1,0.3-0.4,0.3-0.6c0-0.8,0-1.6,0-2.4
			c0-0.6,0.3-0.6,0.7-0.5c0.8,0.3,1.7,0.6,2.5,1c0.3,0.1,0.4,0.1,0.4-0.2c0-1.9,0-3.7,0-5.6c0-0.1-0.1-0.1-0.1-0.2
			c-0.1,0-0.1,0-0.2,0.1c-0.4,0.9-1.1,1-1.9,1c-0.8,0-1.5,0-2.3,0c0-0.1,0-0.1,0-0.1c0.7-0.5,0.8-1.1,0.7-1.9c0-0.6,0-1.2,0-1.7
			c0-0.5,0.2-0.5,0.6-0.6c2.3-0.3,4.4,0.5,6.6,1.2c0.2,0.1,0.4,0.3,0.6,0c0,0,0-0.1,0-0.1c0-0.1-0.2-0.3-0.2-0.4
			c-0.8-1.4-1.6-2.8-2.3-4.2c-0.1-0.1-0.3-0.3-0.2-0.4c0,0,0.1,0,0.1,0l0.2-0.1c0,0,0,0,0,0c-0.2-0.3-0.4-0.4-0.8-0.3
			c0.1,0,0.2,0.1,0.2,0.2c-1.1,0-2.2,0.1-3.4,0.1c-0.4,0-0.5,0.2-0.7,0.5c-0.4,0.8-0.9,1.6-1.4,2.3c-0.4,0.5-0.9,1-1.5,1.2
			c-0.3,0.1-0.6,0.1-0.9,0.1c-0.4,0-0.8-0.1-1.2,0c-0.5,0-1.1,0-1.6,0c0,1.4,0,2.8,0,4.2c0,1-0.7,1.6-1.7,1.4
			c-0.4-0.1-0.8,0-1.3-0.2c-0.6-0.3-0.7-0.5-0.2-1c0.1-0.1,0.2-0.3,0.2-0.5c0-0.7,0-1.5,0-2.2c-0.1,0-0.2,0-0.3,0c0,0,0,0,0,0
			c-0.1,0-0.2,0-0.2,0c-0.1,0-0.2,0.1-0.4,0.1h0c-0.2,0.1-0.4,0.1-0.5,0.1c0,0,0,0,0,0c-0.1,0-0.1,0-0.2,0c-0.1,0-0.2,0-0.3,0
			c0,0,0,0-0.1,0c-0.2,0.2-0.5,0.2-0.7-0.1c0,0,0,0-0.1,0c0,0,0,0-0.1-0.1c-0.2,0-0.2-0.2-0.2-0.3c0-1.3-0.3-2.6,0.6-3.8v0
			c0,0,0-0.1,0-0.1c0-0.1,0.1-0.2,0.1-0.2c0,0,0,0,0,0c0.1-0.3-0.1-0.5-0.4-0.7c-1.1-0.8-2.3-0.9-3.6-0.9c-3,0.1-6,0-9,0
			c-0.3,0-0.7-0.1-0.5,0.4c0.3,0.5,0.4,0.9,0.4,1.5c0,2.2,0,4.4,0,6.5c0,0.6-0.2,0.9-0.8,1.1c-0.8,0.2-1.5,0.2-2.1-0.3
			c-0.3-0.2-0.5-0.4,0-0.6c0.1-0.1,0.2-0.2,0.4-0.3c0-2.1,0-4.2,0-6.3c0-0.4,0-0.7-0.5-0.3c-0.3,0.2-0.6,0.1-1-0.1
			c-0.4-0.3-0.9-0.5-1.3-0.8c-0.9-0.7-1.8-0.9-2.8-0.9c-0.1,0-0.2,0-0.3,0c-1.8,0.1-3.6,0-5.4,0c-0.4,0-0.7,0.1-1.1,0.3
			c-1,0.7-2,1.4-3,2.1c-0.3,0.2-0.5,0.5-0.5,0.9c0,2.1-0.1,4.3-0.1,6.4c0,0.9-0.5,1.5-1.5,1.5c-0.2,0-0.4-0.1-0.4,0.1
			c-0.1,0.2,0.1,0.3,0.3,0.4c0.3,0.4,0.8,0.5,1.3,0.5c0.3,0,0.4,0.1,0.4,0.4c0,1.8,0,3.6,0,5.4c0,0.4-0.2,0.5-0.4,0.7
			c-0.2,0.2-0.3,0.4,0,0.5c1.1,0.5,2.2,1.1,3.3,1.7c0.1,0.1,0.2,0.1,0.3,0.1c0,0,0.1,0,0.1,0h0c0.3-0.1,0.5-0.1,0.8-0.1h0
			c0.1,0,0.3-0.1,0.4-0.1c0,0,0,0,0,0v0c0.1,0,0.1,0,0.2,0c0.1,0,0.1,0,0.2,0c0.4-0.1,0.8-0.1,1.2-0.2c0.9-0.2,1.8-0.3,2.8-0.4
			c0.1,0,0.2,0,0.2,0h0c0.2,0,0.4,0,0.6-0.1c0.2-0.1,0.5-0.1,0.7-0.1c0.2-0.1,0.4-0.1,0.7-0.1c0,0,0,0,0,0c0,0,0.1-0.1,0.1-0.1
			c0,0,0.1,0,0.1,0c0,0,0.1,0,0.1,0c0.1-0.1,0.3-0.1,0.4-0.1c0.1-0.1,0.3-0.2,0.4-0.2c0.1-0.1,0.2-0.1,0.3-0.2
			c0.4-0.4,0.9-0.7,1.4-1c0.3-0.2,0.5-0.5,0.9-0.7c1.2-0.6,1.4-1.6,1.3-2.8c-0.1-1.2,0-2.5,0-3.7c0.2-0.9,0.6-1.2,1.1-0.8
			c0.4,0.2,0.8,0.4,1.3,0.3c0.3-0.1,0.3,0.1,0.3,0.3c-0.2,1.9-0.1,3.8-0.2,5.7c0,0.9-0.4,1.7-1.4,2c0,0,0,0,0,0.1v0
			c0.1,0.1,0.3,0.1,0.4,0.1c0.1,0,0.2,0,0.2,0c4,0,8,0,12,0c0.5,0,0.9-0.3,1.4-0.5c0.1,0,0.3-0.1,0.3,0l0.2,0
			c0.2-0.4,0.5-0.5,0.7-0.6c0.1-0.1,0.2-0.1,0.3-0.2c0.1-0.1,0.3-0.2,0.4-0.2c0.4-0.3,0.9-0.4,1.3-0.8c-0.1-1.6-0.1-3.2-0.2-4.9
			c0-0.3,0-0.5,0.1-0.8c0.1-0.3,0.4-0.5,0.7-0.7c0.4-0.3,0.5,0.2,0.7,0.4c0.1,0,0.2,0.1,0.3,0.2c0,0,0.1,0,0.1,0.1
			c0.4,0,0.7,0.1,1.2-0.1c0,2.2,0.1,4.4,0,6.5c0,0.9-0.8,1.4-1.5,1.8c-0.2,0.1-0.5,0.1-0.2,0.4c0.4,0,0.8,0,1.2,0.1h0
			c0.1,0,0.1,0,0.2,0c0,0,0,0,0,0c0.1,0,0.2,0,0.3,0c0.2,0,0.4,0,0.6,0.1h0c0,0,0.1,0,0.1,0c0,0,0,0,0,0c0,0,0,0,0,0h0
			c0.3,0,0.5,0,0.8,0.1c0.2,0,0.5-0.1,0.7,0.1c1.8,0.1,3.6,0.4,5.4,0.7c1.1,0.2,2.2,0.4,3.3,0.6c0,0,0.1,0,0.1,0
			c0.2,0,0.3-0.1,0.4-0.3c0.7-1.2,1.4-2.5,2.1-3.7c0.1-0.2,0.1-0.4,0.1-0.6C-301.3,670-301.3,669.9-301.3,669.8z M-342.5,667.9
			c0,0.9-0.4,1.4-1.3,1.6c-0.7,0.2-1.4,0.1-2,0.2c-0.4,0-0.7-0.1-0.8-0.6c0.7-0.1,0.9-0.5,0.9-1.2c0-3.3,0-6.6,0-9.9
			c0-0.8,0.2-1,1-0.9c0.2,0,0.4,0,0.6,0c0.6,0.1,1.1,0,1.4-0.7c0.3,0.3,0.3,0.6,0.3,0.9C-342.5,660.8-342.5,664.3-342.5,667.9z
			 M-324.1,666.9c0,1-0.4,1.4-1.4,1.5c-0.1,0-0.2,0-0.3,0h-1.8c0.5-0.4,0.7-0.8,0.7-1.4c0-3.3,0-6.7,0-10c0-0.3,0.1-0.4,0.4-0.4
			c0.4,0,0.7,0,1.1,0c0.2,0,0.5,0,0.6-0.2c0.3-0.5,0.4-0.2,0.6,0.1c0.1,0.3,0.2,0.6,0.2,0.9C-324.1,660.6-324.1,663.8-324.1,666.9z"
			/>
		<path class="st0" d="M-301.3,654.3c0.3,0.6,0,0.8-0.6,1c0-0.1,0-0.1,0.2-0.2C-301.5,655-301.4,654.7-301.3,654.3
			C-301.4,654.4-301.4,654.4-301.3,654.3z"/>
		<path class="st6" d="M-301.3,654.3C-301.4,654.4-301.4,654.4-301.3,654.3C-301.4,654.4-301.4,654.4-301.3,654.3
			C-301.4,654.3-301.4,654.3-301.3,654.3C-301.4,654.3-301.4,654.3-301.3,654.3z"/>
		<path class="st0" d="M-302,655.3C-302,655.3-302,655.3-302,655.3L-302,655.3c0,0.1,0.1,0.1,0.2,0.2c-0.5,0.1-0.8,0-1.2-0.6
			c-0.3-0.4-0.6-0.8-0.9-1.2c0-0.1-0.1-0.3-0.2-0.3l0.2-0.1c0.2,0.3,0.5,0.3,0.8,0.2c0.2-0.1,0.3-0.2,0.3-0.4c0,0.4,0.1,0.8,0.3,1.2
			c0.2,0.4,0.4,0.6,0.8,0.1c0-0.1,0.1-0.1,0.2-0.1c0,0.3-0.1,0.6-0.4,0.7C-301.9,655.2-302,655.3-302,655.3z"/>
		<path class="st0" d="M-301.3,655.4c-0.2,0.1-0.3,0.1-0.4,0.1c0,0,0,0,0,0h0c-0.1,0-0.2-0.1-0.2-0.2
			C-301.7,655.4-301.5,655.4-301.3,655.4z"/>
		<path class="st6" d="M-302.6,653.2c0-0.1,0-0.3,0-0.4C-302.6,652.9-302.6,653-302.6,653.2z"/>
		<path class="st1" d="M-284.2,666.8c-0.2,0.1-0.3,0.3-0.6,0.3c-0.1,0-0.1,0-0.2,0c-0.1,3-0.1,6,0,9c0,0.1,0,0.2-0.1,0.2
			c-0.1,0.1-0.1,0.2-0.3,0.2c0,0,0,0,0,0c-1.1,1.1-2.5,1.7-3.7,2.5c-0.4,0.2-1,0.2-1.6,0c-2.4-0.8-4.8-1.7-7.3-2.5
			c-0.3-0.1-0.5-0.3-0.7-0.5c-0.2-0.2-0.3-0.3-0.5-0.5c-0.8-0.8-1.6-1.6-2.3-2.3c-0.6-0.6-0.8-0.5-1.2,0.2c-0.5,1.1-0.7,1.5-1.4,1.5
			c-0.3,0-0.6-0.1-1.2-0.1c-2.4-0.4-4.8-0.8-7.2-1.2c-0.2,0-0.3-0.1-0.5-0.1c0,0-0.1,0-0.1,0c-0.2,0-0.4,0-0.6-0.1c0,0,0,0,0,0
			c-0.1,0-0.1,0-0.2,0c-0.2,0-0.5,0.1-0.5-0.2c-0.3,0.2-0.5,0.2-0.8,0c-0.2,0-0.5,0-0.7,0c-0.2,0-0.3,0-0.5,0
			c-0.1,0-0.2-0.1-0.2-0.1h0c0,0,0,0-0.1,0c-0.5-0.1-1-0.1-1.5-0.2c0.6-0.5,1.2-1,1.9-1.4c0.5-0.3,0.7-0.6,0.7-1.2
			c0-1.6,0-3.2,0-4.9c0-0.5,0.1-0.9-0.6-0.9c-0.1,0-0.1-0.1-0.2-0.2c0,0-0.1-0.1-0.1-0.1c0,0-0.1-0.1-0.1-0.1
			c-0.6-0.4-0.9-0.2-0.9,0.5c0,1.6,0,3.1,0,4.7c0,0.3,0.1,0.6-0.1,0.8c-0.3,0.4-0.8,0.5-1.2,0.7c-0.2,0.1-0.3,0.2-0.5,0.3
			c-0.1,0.1-0.3,0.1-0.4,0.2c-0.2,0.2-0.4,0.3-0.8,0.4c0.2-0.4,0.5-0.5,0.7-0.6c0.1-0.1,0.2-0.1,0.3-0.2c0.1-0.1,0.3-0.2,0.4-0.2
			c0.4-0.3,0.9-0.4,1.3-0.8c-0.1-1.6-0.1-3.2-0.2-4.9c0-0.3,0-0.5,0.1-0.8c0.1-0.3,0.4-0.5,0.7-0.7c0.4-0.3,0.5,0.2,0.7,0.4
			c0.1,0,0.2,0.1,0.3,0.2c0,0,0.1,0,0.1,0.1c0.4,0,0.7,0.1,1.2-0.1c0,2.2,0.1,4.4,0,6.5c0,0.9-0.8,1.4-1.5,1.8
			c-0.2,0.1-0.5,0.1-0.2,0.4c0.4,0,0.8,0,1.2,0.1h0c0,0,0,0,0,0c0.1,0,0.1,0,0.2,0c0,0,0,0,0,0c0.1,0,0.2,0,0.3,0
			c0.2,0,0.4,0,0.6,0.1h0c0,0,0.1,0,0.1,0c0,0,0,0,0,0c0,0,0,0,0,0h0c0.3,0,0.5,0,0.8,0.1c0.2,0,0.5-0.1,0.7,0.1
			c1.8,0.1,3.6,0.4,5.4,0.7c1.1,0.2,2.2,0.4,3.3,0.6c0,0,0.1,0,0.1,0c0.2,0,0.3-0.1,0.4-0.3c0.7-1.2,1.4-2.5,2.1-3.7
			c0.1-0.2,0.1-0.4,0.1-0.6c0-0.1,0-0.2,0-0.3l0.3,0c0,0.6,0,1.3,0,1.9c0,0.1,0,0.3-0.1,0.4c-0.6,0.4-0.2,0.7,0.1,1
			c0.7,0.6,1.3,1.2,1.9,1.9c0.1,0.1,0.2,0.2,0.3,0.3c0.7,0.7,1.6,1.1,2.7,1.4c2.2,0.6,4.3,1.4,6.4,1.9c0.4,0.1,0.6,0.1,1-0.1
			c1.1-0.7,2.1-1.5,3.3-2.1c0.2-0.2,0.1-0.5,0.1-0.7c0-2.5,0-5.1,0-7.6c0-0.2,0-0.4,0-0.6c0-0.1,0.1-0.2,0.2-0.3c0,0,0-0.1,0-0.1
			c0,0,0,0,0.1-0.1c0.1-0.1,0.2-0.1,0.3-0.2c0,0,0,0,0,0c0.3-0.4,0.1-0.7-0.6-0.8c0,0-0.1,0-0.1-0.1c-0.3-0.2-0.7-0.5-0.7-0.8
			c0-0.4,0.5-0.3,0.7-0.5c0.1-2.3,0-4.7-0.1-7c0-1,0-2,0-2.9c0-0.4,0-0.7-0.5-0.3c-0.3,0.2-0.5,0-0.7-0.2c-0.9-0.8-1.7-1.6-2.5-2.4
			c-0.3-0.4-0.7-0.5-1.2-0.5c-1.2,0-2.4,0.1-3.7,0c-0.9-0.1-1.6,0.2-2.3,0.7c-0.3,0.2-0.6,0.4-1,0.6c-0.1,0.2-0.3,0.3-0.5,0.4
			c-0.1,0.2-0.3,0.3-0.5,0.4c-0.4,0.3-0.8,0.6-1.1,0.9c-0.2,0.2-0.5,0.5-0.8,0.6c0,0-0.1,0.1-0.1,0.1c-0.7,0.5-0.7,1.4-0.7,2.2
			c0,0.4,0,0.8,0,1.2l-0.1,0c0-0.1,0-0.1,0-0.2c0,0.1,0,0.2,0,0.3l-0.1,0c0-0.1-0.2-0.3-0.2-0.4c-0.8-1.4-1.6-2.8-2.3-4.2
			c-0.1-0.1-0.3-0.3-0.2-0.4c0,0,0.1,0,0.1,0c0.1,0,0.2,0.2,0.2,0.3c0.3,0.4,0.6,0.8,0.9,1.2c0.4,0.6,0.6,0.7,1.2,0.6h0c0,0,0,0,0,0
			c0.1,0,0.3-0.1,0.4-0.1c0.3-0.2,0.5-0.4,0.8-0.6c0,0,0.1-0.1,0.1-0.1c0.2-0.3,0.5-0.5,0.8-0.6c0.3-0.4,0.7-0.6,1.1-0.9
			c0.2-0.1,0.3-0.3,0.5-0.4c0.2-0.1,0.4-0.3,0.5-0.4c0.8-0.6,1.6-1.1,2.5-1.6c0.2-0.1,0.5-0.2,0.7-0.2c1.4,0,2.8,0,4.2,0
			c0.3,0,0.6,0.1,0.8,0.3c0.8,0.8,1.6,1.5,2.4,2.2c0.7,0.6,0.9,0.6,1.6,0c0.1-0.1,0.2-0.2,0.4-0.2c0,3.7,0,7.3,0,11
			c0,0.3-0.1,0.5-0.2,0.6c-0.2,0.7,0,0.9,0.6,0.9c0.2,0,0.6-0.2,0.7,0.2C-283.8,666.1-283.7,666.5-284.2,666.8z"/>
		<path class="st1" d="M-306.1,650.8c-0.3,0.4-0.6,0.7-0.9,1.1c-0.1,0.1-0.3,0.2-0.4,0.1c-0.1-0.1,0-0.2,0.1-0.3
			c0.2-0.3,0.3-0.7,0.5-1c1.2-2,0.8-4,0.2-6c-0.1-0.2-0.2-0.4-0.2-0.6c-0.2-0.3-0.3-0.5-0.5-0.8c0.4,0.1,0.5,0.3,0.6,0.6
			c0.5,0.3,0.3-0.2,0.4-0.4c0.1-0.8,0.1-1.7,0.5-2.5c0-0.2,0.1-0.4,0.3-0.5c0.1,0.3,0,0.5-0.2,0.8c-0.6,1.9-0.2,3.7,0.4,5.5
			C-304.9,648.3-305.3,649.6-306.1,650.8z"/>
		<path class="st1" d="M-307.6,649.9c0,0.2-0.1,0.4-0.2,0.5c0,0.2-0.1,0.3-0.1,0.5c-0.1-0.2-0.1-0.4,0-0.6c0-0.1,0-0.3,0.1-0.4
			c0-0.9,0.3-1.8,0-2.7c-0.3-1.2-1-1.9-2.3-2c-0.5,0-0.9,0-1.4,0c-1.1,0.2-2-0.3-2.9-0.7c-0.2-0.1-0.3-0.1-0.5-0.2
			c0.3-0.2,0.5-0.1,0.7,0c0.2,0,0.4,0,0.4-0.2c0.1-0.2-0.2-0.2-0.3-0.3c-0.7-0.8-1.3-1.5-1.7-2.4c-0.7-1.8-2.1-2.5-3.9-2.6
			c-0.1,0-0.1,0-0.2,0c1.4-0.4,3.7,0.4,4.4,1.7c1.3,2.5,3.5,3.6,6.1,4.2c0.3,0.1,0.6,0.1,0.9,0.2c1.1,0.3,1.5,0.9,1.5,2
			C-307,647.9-307.2,648.9-307.6,649.9z"/>
		<path class="st0" d="M-309.3,699.4c-0.9-0.9-1.8-1.8-2.7-2.7c-1.2-1.2-1.2-3.3-0.1-4.3c0.1-0.1,0.4-0.2,0.3-0.4
			c-0.1-0.2-0.4-0.1-0.6,0c-1.8,0.6-2.8,2.5-2.4,4.4c0.3,1.4,1,2.6,1.9,3.7c0.7,0.9,0.4,2-0.7,2.3s-2.3,0.5-3.5,0.5
			c-0.1,0-0.2,0-0.3,0c0-0.2,0-0.3-0.1-0.5c0.1-0.1,0.2-0.2,0.3-0.2h0.1c0,0,0.1,0,0.2,0v-1.4h-3.4v1.4h0.4c0.1,0,0.1,0.1,0.2,0.2
			c0,0.4-0.1,0.8-0.2,1.4c-0.2,0.7-0.3,1.1-0.5,1.1c0.1,0.1,0.1,0.3,0.1,0.5c0,0.2-0.1,0.5-0.2,1.1c0,0.2-0.1,0.4-0.1,0.5
			c0,0.1-0.1,0.3-0.1,0.4c-0.1,0.3-0.2,0.5-0.4,0.4c-0.1,0-0.1,0-0.1,0h-0.1v1.4h2.1v-1.4h-0.3c-0.2,0-0.3-0.2-0.3-0.5
			c0-0.1,0-0.3,0.1-0.6h1.4c0.1,0.2,0.1,0.4,0.1,0.5c0,0.3-0.1,0.4-0.2,0.5c0,0-0.1,0-0.1,0c0,0-0.1,0-0.2,0v1.4h2.6v-1.4
			c-0.2,0-0.4,0-0.4-0.1c0,0-0.1-0.1-0.1-0.2c0-0.1,0.1-0.1,0.3-0.1c1-0.1,2.1-0.2,3.1-0.3c1.1-0.1,2.2-0.5,3.2-1.1
			C-307.4,704.3-307.7,701.1-309.3,699.4z M-319.3,705.3l0.4-2.1l0.4,2.1H-319.3z"/>
		<path class="st1" d="M-312.3,650c0-0.1-0.1-0.3-0.3-0.3c0.1-0.1,0.3-0.3,0.3-0.2C-312.1,649.7-312.3,649.9-312.3,650z"/>
		<path class="st0" d="M-315.2,672.9c-0.1,0-0.1,0-0.2,0c0,0,0,0,0,0C-315.4,672.9-315.3,672.9-315.2,672.9z"/>
		<path class="st0" d="M-315.6,670.2c0,0.6-0.2,0.9-0.7,1.2c-0.7,0.4-1.2,0.8-1.9,1.4c0.6,0.1,1.1,0.1,1.5,0.2c0,0,0,0,0.1,0
			c-0.2,0.1-0.3,0.2,0,0.5c0.1,0.1,0.2,0.2,0.3,0.3c-0.9,0-1.8-0.3-2.7-0.3c-0.2,0-0.5,0-0.5-0.3c0-0.3,0.2-0.4,0.4-0.5l0,0
			c0,0,0,0,0,0c0.1,0.1,0.1,0.3,0.3,0.2c0,0,0.1-0.1,0.1-0.2c-0.1-0.2-0.2,0-0.4,0c0,0,0,0,0,0c0.8-0.6,1.6-1.2,2.4-1.7
			c0.3-0.2,0.4-0.4,0.4-0.8c0-1.5,0-2.9,0-4.4c0-0.5-0.2-0.7-0.7-0.7c0,1.5,0,3,0,4.5c0,0.7-0.2,1.1-0.8,1.5
			c-0.9,0.5-1.8,0.9-2.6,1.4c0-0.3-0.2-0.4-0.4-0.6c0-0.1,0-0.1,0-0.2l0.2,0c0.4-0.1,0.6-0.2,0.8-0.4c0.1-0.1,0.3-0.1,0.4-0.2
			c0.2-0.1,0.3-0.2,0.5-0.3c0.4-0.2,0.9-0.3,1.2-0.7c0.2-0.2,0.1-0.5,0.1-0.8c0-1.6,0-3.1,0-4.7c0-0.7,0.3-0.8,0.9-0.5
			c0,0,0.1,0.1,0.1,0.1c0,0,0.1,0.1,0.1,0.1c0.1,0.1,0.1,0.2,0.2,0.2c0.7,0,0.6,0.5,0.6,0.9C-315.6,666.9-315.6,668.6-315.6,670.2z"
			/>
		<path class="st1" d="M-316.2,661.1c0,0.4-0.2,0.4-0.4,0.4c-0.2,0-0.4,0-0.4-0.3c0-0.9,0-1.7,0-2.6c0-0.5,0.4-0.6,0.8-0.9
			C-316.2,658.8-316.2,660-316.2,661.1z"/>
		<path class="st0" d="M-316.2,673.7c-0.1-0.1-0.2-0.2-0.3-0.3c-0.3-0.3-0.2-0.4,0-0.5h0c0.1,0,0.2,0.1,0.2,0.1c-0.1,0-0.2,0-0.3,0
			C-316.5,673.3-316.1,673.4-316.2,673.7z"/>
		<path class="st7" d="M-316.4,650.9c0.1,0.2-0.2,0.2-0.3,0.2c0.2-0.3,0.2-0.3-0.3-0.4C-316.8,650.8-316.5,650.7-316.4,650.9z"/>
		<path class="st7" d="M-317,650.8c0.5,0.1,0.5,0.1,0.3,0.4C-316.5,650.8-316.9,650.9-317,650.8z"/>
		<path class="st1" d="M-316.7,653.9c-1.4,0.4-2,0.8-3,1.9C-319.2,653.9-318.7,653.2-316.7,653.9z"/>
		<polygon class="st8" points="-318,658.9 -318,658.9 -318,658.9 		"/>
		<path class="st0" d="M-318.7,672.6c0,0,0,0.1-0.1,0.2c-0.2,0.1-0.2-0.1-0.3-0.2C-318.9,672.6-318.8,672.4-318.7,672.6z"/>
		<polygon class="st0" points="-319,672.6 -319,672.6 -319,672.6 		"/>
		<path class="st1" d="M-304.5,652.9c-0.1,0-0.1-0.1-0.2-0.1c-0.9-0.2-1.9-0.2-2.9-0.2c-0.3,0-0.5,0.1-0.7,0.4c-0.6,1-1.3,2-2,3
			c-0.3,0.5-0.7,0.8-1.3,1c-0.2,0-0.4,0.1-0.6,0.1c-0.2,0-0.4,0-0.6-0.1c-0.8-0.2-1.5-0.2-2.3,0c-0.4,0.1-0.6,0.3-0.6,0.7
			c0,1.2,0,2.4,0,3.7c0,0.3-0.1,0.7-0.4,0.7c-0.5,0-1.1,0.2-1.6-0.1c-0.1-0.1-0.1-0.2-0.1-0.4c0.3-0.9,0.1-1.9,0.2-2.8
			c0-0.4-0.2-0.2-0.4-0.1c-0.3,0-0.5,0.1-0.8,0.1c-0.3,0.2-0.8,0-1.1,0.2c-0.1,0-0.1,0-0.2,0c-0.3,0-0.6,0-0.9,0
			c-0.1-1.4,0-2.8,0.6-4.1c0.1-0.1,0.1-0.3,0.2-0.4c0.3-0.4,0.3-0.6-0.2-0.9c-0.8-0.4-1.5-0.8-2.3-1.2c-0.2-0.1-0.4-0.2-0.6-0.2
			c-3.8,0-7.5,0-11.4,0c0.1,0.5,0.3,1,0.5,1.4l0.2-0.1c0,0,0-0.1,0-0.1c0,0,0,0,0,0c-0.1-0.6,0.3-0.4,0.5-0.4c3,0,6,0,9,0
			c1.3,0,2.5,0.1,3.6,0.9c0.3,0.2,0.5,0.4,0.4,0.7c0,0,0,0,0,0c0,0.1,0,0.2-0.1,0.2c0,0,0,0-0.1,0.1v0c-0.9,1.1-0.7,2.5-0.6,3.8
			c0,0.1,0.1,0.3,0.2,0.3c0,0,0,0,0.1,0.1c0,0,0,0,0.1,0c0.2,0.2,0.5,0.3,0.7,0.1c0,0,0,0,0.1,0c0.1,0,0.2,0,0.3,0
			c0.1,0,0.1,0,0.2,0c0,0,0,0,0,0c0.2,0,0.4,0,0.5-0.1h0c0.1,0,0.2,0,0.4-0.1c0.1,0,0.2,0,0.2,0c0,0,0,0,0,0c0.1,0,0.2,0,0.3,0
			c0,0.7,0,1.5,0,2.2c0,0.2-0.1,0.3-0.2,0.5c-0.4,0.5-0.4,0.7,0.2,1c0.4,0.2,0.8,0.1,1.3,0.2c1,0.2,1.7-0.3,1.7-1.4
			c0-1.4,0-2.8,0-4.2c0.5,0,1.1,0,1.6,0c0.4,0,0.8,0,1.2,0c0.3,0,0.6,0,0.9-0.1c0.6-0.2,1.1-0.6,1.5-1.2c0.5-0.7,1-1.5,1.4-2.3
			c0.1-0.3,0.3-0.4,0.7-0.5c1.1-0.1,2.2-0.1,3.4-0.1C-304.4,653-304.5,653-304.5,652.9z M-318,658.9C-318,658.9-318,658.9-318,658.9
			C-318,658.9-318,658.9-318,658.9C-318,658.9-318,658.9-318,658.9z"/>
		<path class="st0" d="M-320.3,672.3c-0.1-0.2-0.5-0.2-0.4-0.5c0,0,0,0,0,0C-320.5,671.9-320.3,672-320.3,672.3z"/>
		<path class="st0" d="M-320.3,654.8c0,0.1,0,0.2-0.1,0.2c0,0,0,0-0.1,0.1c0,0,0-0.1,0-0.1C-320.4,654.9-320.3,654.8-320.3,654.8z"
			/>
		<path class="st1" d="M-320.6,649.3c-0.1,0.1-0.1,0.1-0.2,0.2c-0.3-0.1-0.5-0.3-0.8-0.6C-321.2,648.9-320.9,649.1-320.6,649.3z"/>
		<path class="st1" d="M-299.3,629.7c-0.5-0.1-0.7-0.3-0.9-0.5c-2.7-1.4-5.3-2.9-8.1-4c-1.6-0.7-3.2-1.3-4.9-1.7
			c-0.5-0.1-0.8,0.1-0.9,0.6c-0.2,0.9-0.1,1.7,0.5,2.4c0.5,0.7,1,1.4,1.4,2c0.7,1,1,2.1,0.8,3.3c0,0.1-0.1,0.2-0.2,0.3v-1.9
			c-0.7-1-1.5-1.9-2.5-2.7c-1.2-1-1.6-2.3-1.4-3.8c0-0.2,0.1-0.4-0.1-0.4c-0.2-0.1-0.2,0.1-0.3,0.3c-0.6,1-1.3,2-1.6,3.1
			c0,0.2,0,0.4-0.2,0.6c0-0.4,0-0.8,0.1-1.1c0.1-0.7,0.3-1.5,0.6-2.2c0.1-0.2,0.3-0.4,0.1-0.6c-0.2-0.1-0.4-0.1-0.6,0
			c-1.1,0.3-2.1,0.5-3.2,1c-2.7,1.1-5.3,2.5-7.9,4c-0.1,0.1-0.3,0.2-0.4,0.2c-0.1,0.2-0.3,0.3-0.5,0.3c0.1-0.3,0.3-0.4,0.5-0.5
			c3.1-2.6,6.4-4.7,10.3-5.8c2.3-0.6,4.5-0.5,6.7,0.2c4.4,1.4,8.4,3.5,12.1,6.2C-299.8,629.2-299.5,629.4-299.3,629.7z"/>
		<path class="st1" d="M-328.9,626.9c-1.7,1.6-3.4,3.1-5,4.7c-0.3,0.3-0.5,0.2-0.7,0c-0.4-0.4-0.7-0.3-1.2,0c-0.8,0.5-1.6,1-2.4,1.5
			c-0.2,0.1-0.3,0.3-0.6,0.1c0.5-0.4,1.1-0.8,1.6-1.2c0.6-0.5,1.2-0.9,1.9-1.4c0.2-0.1,0.3-0.2,0.2-0.5c-0.7-1.2-0.6-2.5-0.7-3.8
			c-0.1-0.9,0.1-1.8-0.1-2.8C-333.6,624.7-331.3,625.8-328.9,626.9z"/>
		<path class="st1" d="M-333.5,655c0-0.5-0.1-1-0.4-1.5c0,0,0,0.1,0,0.1l-0.2,0.1c0.2,0.5,0.2,1,0.2,1.5c0,1.9,0,3.9-0.1,5.8
			c-0.1,0.9-0.4,1.2-1.3,1.1c-0.3,0-0.8,0-0.7-0.6c0.1-0.1,0.2-0.3,0.2-0.5c0-2.7,0-5.3,0.2-8c-0.4,0.3-0.6,0.7-0.9,1
			c-0.3,0.4-0.7,0.5-1.1,0.2c-0.3-0.2-0.5-0.4-0.8-0.5c-0.8-0.4-1.5-1-2.4-1c-0.3,0-0.5,0-0.8,0v0.2c0.3,0,0.5,0,0.7,0.1
			c-0.1,0-0.1,0-0.2,0h-0.7v0.2c1,0,2,0.2,2.8,0.9c0.4,0.3,0.9,0.5,1.3,0.8c0.3,0.2,0.7,0.3,1,0.1c0.5-0.4,0.5-0.1,0.5,0.3
			c0,2.1,0,4.2,0,6.3h0c0,0,0,0,0,0c0,0,0,0,0,0c-0.1,0.1-0.2,0.2-0.4,0.3c-0.5,0.2-0.3,0.3,0,0.6c0.7,0.6,1.4,0.6,2.1,0.3
			c0.6-0.2,0.8-0.5,0.8-1.1C-333.5,659.4-333.5,657.2-333.5,655z M-340.8,652.9c0.2,0,0.3,0,0.5,0.1
			C-340.5,652.9-340.6,652.9-340.8,652.9z"/>
		<path class="st9" d="M-333.9,653.6C-333.9,653.6-333.9,653.6-333.9,653.6c0-0.1,0-0.1,0-0.1C-333.9,653.6-333.9,653.6-333.9,653.6
			z"/>
		<path class="st1" d="M-334.5,660.6c0,0.2,0,0.3,0,0.5c0,0.2-0.1,0.3-0.4,0.3c-0.3,0-0.2-0.2-0.2-0.4v-8c0.5,0.8,0.6,1.5,0.6,2.3
			C-334.5,657.2-334.5,658.9-334.5,660.6z"/>
		<path class="st1" d="M-334.5,665c0,0.1,0,0.1,0,0.2c0,1.5-0.1,2.9-0.1,4.4c0,0.4-0.1,0.6-0.4,0.7c0-1.8,0-3.6,0-5.3
			c0-0.1-0.1-0.4,0.2-0.4C-334.7,664.6-334.5,664.7-334.5,665z"/>
		<path class="st0" d="M-336.9,702.5c0,0.1,0,0.4,0,1c0,0.4,0,0.6,0,0.7c0,0.3,0.1,0.5,0.2,0.7c0,0-0.1,0.1-0.2,0.3
			c-0.1,0.2-0.1,0.3-0.1,0.4v1.7c0,1.3-0.6,2-1.7,2c-0.5,0-0.8-0.1-1.2-0.3c-0.5-0.3-0.7-0.8-0.7-1.5c-0.4-0.3-1-0.3-1.6-0.4
			c-1.1-0.1-2.1-0.1-3.1-0.4c-1.5-0.5-2.8-1.3-3.3-2.9c-0.5-1.6-0.2-3.1,0.9-4.3c0.8-1,1.8-1.8,2.7-2.7c1.4-1.4,1.3-3.2,0-4.5
			c-0.1-0.1-0.2-0.2-0.1-0.3c0.1-0.2,0.3-0.1,0.5,0c1.2,0.5,2.1,1.2,2.4,2.5c0.4,1.6,0,3-0.8,4.3c-0.3,0.5-0.7,1-1,1.5
			c-0.6,0.8-0.4,1.7,0.4,2.1c0.9,0.4,1.9,0.5,2.9,0.4c0.1,0,0.2,0,0.3-0.2l0,0.4c0-0.2,0-0.3,0-0.3c0-0.3-0.2-0.4-0.3-0.4
			c0,0-0.1,0-0.1,0c0,0-0.1,0-0.1,0v-1.4h2.5v1.4c0,0-0.1,0-0.1,0c0,0,0,0-0.1,0c-0.2,0-0.3,0.1-0.3,0.4c0,0,0,0.1,0,0.3
			c0,0.1,0,0.3,0,0.5c0,0.5,0,0.7,0,0.8c0,0.3,0.1,0.5,0.3,0.7c-0.1,0.2-0.2,0.4-0.3,0.7c0,0,0,0.3,0,0.7c0,0.6,0,1,0.1,1.2
			c0.1,0.1,0.2,0.2,0.5,0.2c0.1,0,0.2,0,0.3-0.1c0.1,0,0.2-0.1,0.2-0.2c0.1-0.1,0.1-0.3,0.1-0.5c0-0.2,0-0.4,0-0.7
			c0-0.4,0-0.6,0-0.6c0-0.3-0.1-0.5-0.3-0.7c0.1-0.1,0.2-0.4,0.3-0.7c0,0,0-0.3,0-0.8c0-0.5,0-0.8,0-0.9c-0.1-0.2-0.2-0.3-0.4-0.3
			v-1.4h2v1.4C-336.6,702.2-336.8,702.3-336.9,702.5z"/>
		<polygon class="st9" points="-336.1,661.5 -336.1,661.5 -336.1,661.5 		"/>
		<path class="st1" d="M-336.3,639.5c-0.1,0.1-0.1,0.1-0.2,0.2c-0.3-0.2-0.4-0.6-0.6-1C-336.6,638.8-336.5,639.2-336.3,639.5z"/>
		<path class="st1" d="M-336.6,628.9c-0.2-0.1-0.1-0.3-0.2-0.4c-0.2-0.6-0.1-1.1,0.1-1.7v1.4C-336.6,628.4-336.6,628.6-336.6,628.9z
			"/>
		<path class="st1" d="M-339.1,633.5c-0.1,0.3-0.2,0.4-0.6,0.4C-339.5,633.7-339.3,633.6-339.1,633.5z"/>
		<path class="st6" d="M-340.3,653c-0.2,0-0.3-0.1-0.5-0.1C-340.6,652.9-340.5,652.9-340.3,653z"/>
		<path class="st10" d="M-340.7,634.6c0,0,0.1,0.1,0.1,0.1c-0.1,0.1-0.2,0.2-0.4,0.1C-341,634.7-340.9,634.6-340.7,634.6z"/>
		<path class="st11" d="M-340.8,711.9c0-0.1-0.1-0.2,0-0.3C-340.8,711.7-340.8,711.8-340.8,711.9z"/>
		<path class="st6" d="M-340.8,652.9c-0.1,0-0.1,0-0.2,0h-2.1c0.5,0,0.9,0,1.4,0c0.1,0,0.2,0,0.2,0
			C-341.3,652.8-341,652.9-340.8,652.9z"/>
		<path class="st1" d="M-341.2,635.1c-0.1,0-0.1,0.1-0.2,0.1c-0.1,0-0.1-0.1-0.1-0.1c0.1-0.1,0.1-0.1,0.2-0.2
			C-341.3,635-341.3,635-341.2,635.1z"/>
		<path class="st1" d="M-320.7,671.6c0-0.1-0.2,0-0.3,0c-0.4,0.2-0.8,0.5-1.4,0.5c-4,0-8,0-12,0c-0.1,0-0.2,0-0.2,0
			c-0.1,0-0.3,0-0.4-0.1v0c0,0,0,0,0,0c0,0,0,0,0,0c1-0.3,1.4-1.1,1.4-2c0-1.9,0-3.8,0.2-5.7c0-0.2,0-0.4-0.3-0.3
			c-0.5,0.2-0.9-0.1-1.3-0.3c-0.5-0.4-1-0.1-1.1,0.8c0,1.2-0.1,2.5,0,3.7c0.1,1.2,0,2.3-1.3,2.8c-0.4,0.1-0.6,0.4-0.9,0.7
			c-0.5,0.3-1,0.6-1.4,1c-0.1,0.1-0.2,0.1-0.3,0.2c-0.1,0.1-0.3,0.2-0.4,0.2c-0.1,0-0.3,0-0.4,0.1c0,0-0.1,0-0.1,0c0,0-0.1,0-0.1,0
			c-0.1,0-0.1,0-0.1,0.1c0,0,0,0,0,0c-0.2,0-0.4,0-0.7,0.1c-0.2,0-0.5,0-0.7,0.1c-0.2,0-0.4,0-0.6,0.1h0c-0.1,0-0.2,0-0.2,0
			c0,0,0,0,0.1,0c0,0,0,0,0,0c0,0,0,0,0,0c-0.9,0.1-1.8,0.2-2.8,0.4c-0.4,0.1-0.8,0.1-1.2,0.2c-0.1,0-0.1,0-0.2,0
			c-0.1,0-0.1,0-0.2,0v0c0,0,0,0,0,0c-0.1,0-0.3,0.1-0.4,0.1h0c-0.3,0-0.5,0-0.8,0.1c0,0,0,0,0,0c0,0,0,0,0,0c0,0-0.1,0-0.1,0
			c-0.1,0-0.2,0-0.3-0.1c-1.1-0.6-2.2-1.2-3.3-1.7c-0.3-0.2-0.2-0.4,0-0.5c0.2-0.2,0.4-0.4,0.4-0.7c0-1.8,0-3.6,0-5.4
			c0-0.3-0.1-0.4-0.4-0.4c-0.5,0-0.9-0.1-1.3-0.5c-0.1-0.1-0.3-0.2-0.3-0.4c0.1-0.2,0.3-0.1,0.4-0.1c0.9-0.1,1.4-0.6,1.5-1.5
			c0-2.1,0.1-4.3,0.1-6.4c0-0.4,0.2-0.7,0.5-0.9c1-0.7,2-1.3,3-2.1c0.3-0.2,0.7-0.3,1.1-0.3c1.8,0,3.6,0.1,5.4,0c0.1,0,0.2,0,0.3,0
			v-0.2h-1.4c0.5,0,0.9,0,1.4,0c0.1,0,0.2,0,0.2,0v-0.2c-2.2,0-4.5,0-6.7,0c-0.3,0-0.5,0.1-0.8,0.2c-1.1,0.7-2.1,1.6-3.1,2.4
			c-0.3,0.3-0.5,0.6-0.5,1.1c0,1.9,0,3.9,0,5.8c0,0.2,0,0.5-0.1,0.7c-0.1,0.3-0.3,0.6-0.7,0.5c-0.4-0.1-0.3-0.4-0.3-0.7c0-3,0-6,0-9
			v-1.9c-0.2,0.3-0.3,0.4-0.4,0.5c-0.7,0.7-0.8,0.7-1.6,0.1c-0.7-0.5-1.4-1.1-2.1-1.6c-0.3-0.2-0.5-0.2-0.8-0.2c-1.7,0-3.3,0-5,0
			h-6.6c0.1,0.4,0.2,0.9,0.4,1.3c0.1,0.4,0.2,0.8,0.2,1.3c0,0.9,0,1.8,0,2.7c0,2.8,0,5.6,0,8.3c0,0.9-0.4,1.2-1.3,1.2
			c-0.5,0-1-0.2-1.4-0.1c0.5,0.6,1.1,1.2,1.6,1.8c0.2,0.2,0.3,0.4,0.6,0.3c0,0,0.1,0,0.1,0c0.3,0,0.3,0.2,0.3,0.5c0,3.2,0,6.4,0,9.6
			c0,0.7-0.3,1.4-0.8,2c-0.6,0.7-1.1,1.5-1.6,2.3c1.9-0.6,3.5-1.3,5.3-2c1.3-0.5,2.5-1,3.8-1.5c0.6-0.2,1.2-0.4,1.8-0.6
			c0.9-0.3,1.9-0.6,2.9-0.8c0.9-0.2,1.8-0.5,2.7-0.7c2.3-0.6,4.6-1.2,7-1.8c0.4-0.1,0.8,0.1,1.2-0.2h0c0,0,0,0,0,0l0,0
			c1.5,0,3-0.3,4.5-0.6c0.2,0,0.4,0,0.6,0c0.3,0,0.6-0.1,0.9-0.1c0.2,0,0.4,0.1,0.5-0.2c0,0,0,0,0-0.1c0.2,0.1,0.5,0.2,0.7,0
			c0.2,0,0.3-0.1,0.4-0.2c0.1-0.1,0.2-0.1,0.3-0.2c0.5-0.3,1-0.6,1.4-1c0.3-0.2,0.6-0.3,0.8-0.6c0.6-0.3,1.2-0.6,1.5-1.2
			c0.1-0.2,0.1-0.4,0.1-0.6c0-1.5,0-3,0-4.5c0-0.5,0.1-0.9,0.7-1c0.2,0.2,0.4,0.4,0.6,0.4c0.5,0,0.5,0.3,0.5,0.6c0,1.5,0,2.9,0,4.4
			c0,1.1-0.4,1.9-1.3,2.4c-0.3,0.2-0.5,0.4-0.3,0.7c0.1,0.4,0.4,0.2,0.6,0.2c0.2,0,0.4,0,0.5,0c3.6,0,7.3,0,10.9,0
			c1,0,1.9-0.1,2.8-0.7c0,0,0,0,0,0C-320.7,671.7-320.7,671.7-320.7,671.6z M-343.2,652.9c-0.8,0-1.7,0-2.5,0
			C-344.9,652.9-344,652.9-343.2,652.9z M-353.6,675.2c-1.6,0.5-3.2,1-4.8,1.4c-0.5,0.1-1.1,0.3-1.6,0.4c-0.2,0-0.3,0.1-0.6,0
			c0.5-0.7,0.2-1.3,0.1-2c-0.5-2.4-1-4.7-1.4-7.1c-1.1,0.4-1.2,0.5-1.2,1.6c0,1.7,0,3.4,0,5.1c0,0.7,0.1,1.3,0.5,1.9
			c0.5,0.8,0.4,1.1-0.5,1.4c-2.2,0.8-4.5,1.7-6.7,2.5c-0.2,0.1-0.4,0.2-0.7,0.1c1.2-1.2,1.6-2.6,1.6-4.2c0-2.9,0-5.8,0-8.7
			c0-0.3,0.1-0.7-0.5-0.5c-0.1,0-0.2,0-0.4,0c-0.4-0.1-0.9-0.5-1-0.8c-0.1-0.3,0.1-0.3,0.3-0.3c1.2-0.1,1.6-0.7,1.6-1.8
			c0-3.4,0-6.7,0-10.1c0-0.9-0.3-1.6-0.6-2.4c0,0,0,0,0,0c-0.1-0.4,0-0.5,0.4-0.5c3.5,0,7.1,0,10.6,0c0.3,0,0.4,0.1,0.6,0.2
			c0.9,0.7,1.7,1.4,2.6,2.1c0.2,0.2,0.4,0.4,0.7,0.1c0.2-0.1,0.3-0.4,0.5-0.2c0.1,0.1,0.1,0.2,0.1,0.3c0,0.1,0,0.2,0,0.3
			c0,2.5-0.1,4.9-0.1,7.4c0,1.5-0.4,2.5-1.5,3.4c-0.5,0.4-0.7,0.9-0.5,1.5c0.4,1.5,0.7,3.1,1,4.6c0.1,0.6,0.3,1.3-0.3,1.8
			c-0.2,0.1,0,0.3,0,0.4c0.3,0.7,0.9,1.1,1.6,1.4c0.2,0.1,0.6,0,0.6,0.3C-353.1,675.3-353.4,675.1-353.6,675.2z"/>
		<path class="st1" d="M-340,647.2c-0.2,0.1-0.4,0.3-0.5,0.5c-0.5,1.1-1.1,2.1-1.6,3.2c-0.1,0.2,0,0.3,0.1,0.4
			c-0.2,0.1-0.3-0.2-0.4-0.2c0.3-1,0.8-2,1.2-3c0.4-0.9,0.3-1.2-0.4-1.9c-0.3-0.3-0.6-0.6-0.9-1c0,0,0.1-0.1,0.1-0.1
			C-341.6,645.8-340.8,646.5-340,647.2z"/>
		<path class="st1" d="M-342.2,608.2c-0.1,0.1-0.3,0.2-0.4,0.2c0,0-0.1-0.1,0-0.2C-342.5,608.1-342.3,608.1-342.2,608.2z"/>
		<path class="st6" d="M-343.2,652.9c-0.8,0-1.7,0-2.5,0C-344.9,652.9-344,652.9-343.2,652.9z"/>
		<path class="st0" d="M-343.2,673.4C-343.2,673.4-343.2,673.4-343.2,673.4C-343.2,673.4-343.3,673.4-343.2,673.4
			C-343.2,673.4-343.2,673.4-343.2,673.4z"/>
		<path class="st1" d="M-346.4,614.9c-0.1,0.1-0.2-0.1-0.2-0.2c-0.3-0.4-0.7-0.8-1-1.2c-0.1-0.2-0.3-0.2-0.4-0.1
			c0.1-0.2,0-0.5,0.3-0.6c0,0.1-0.1,0.2-0.1,0.2c0,0.1,0.1,0.2,0.3,0.2c0.3,0,0.6,0,1.1,0c-0.6,0.5,0.3,0.8-0.1,1.2
			C-346.4,614.7-346.2,614.8-346.4,614.9z"/>
		<path class="st12" d="M-347.5,674.1L-347.5,674.1C-347.5,674.1-347.5,674.1-347.5,674.1C-347.5,674.1-347.5,674.1-347.5,674.1z"/>
		<polygon class="st12" points="-347.5,674.1 -347.5,674.1 -347.5,674.1 		"/>
		<path class="st1" d="M-346.4,633.2c-0.1,0.2,0,0.5-0.2,0.6c0,0,0,0.1,0,0.1c0,0.1-0.1,0.1-0.1,0c0.1-1.1-0.1-2.2,0.1-3.2
			c0-1.3,0-2.5,0-3.8c0-0.3,0-0.5-0.1-0.8c-0.5-1-0.9-2-1.3-3.1c-0.1-0.3-0.2-0.5-0.4-0.8c0.4,0,0.4,0.3,0.5,0.5
			c0.6,1,1.3,2,1.9,3.1c0.1,0.2,0.1,0.4,0.1,0.6c0,0.7,0,1.5,0,2.2C-345.7,630.2-345.9,631.7-346.4,633.2z"/>
		<path class="st0" d="M-348.7,674.2C-348.8,674.2-348.8,674.2-348.7,674.2C-348.8,674.2-348.8,674.2-348.7,674.2
			c-0.1,0-0.1,0-0.2,0C-348.9,674.2-348.8,674.2-348.7,674.2L-348.7,674.2z"/>
		<path class="st13" d="M-350.7,651.7c0.1,0,0.1,0,0.2,0.1c-0.1,0.1-0.1,0.1-0.2,0.2c-0.1,0-0.1-0.1-0.1-0.1
			C-350.9,651.7-350.8,651.7-350.7,651.7z"/>
		<path class="st0" d="M-353.6,674.6c-0.7-0.3-1.3-0.6-1.6-1.4c-0.1-0.1-0.2-0.3,0-0.4c0.6-0.5,0.4-1.2,0.3-1.8
			c-0.3-1.5-0.6-3.1-1-4.6c-0.2-0.7-0.1-1.1,0.5-1.5c1.1-0.8,1.5-1.9,1.5-3.4c0-2.5,0.1-4.9,0.1-7.4c0-0.1,0-0.2,0-0.3
			c0-0.1,0-0.2-0.1-0.3c-0.3-0.2-0.4,0.1-0.5,0.2c-0.3,0.2-0.5,0-0.7-0.1c-0.9-0.7-1.7-1.4-2.6-2.1c-0.2-0.2-0.4-0.2-0.6-0.2
			c-3.5,0-7.1,0-10.6,0c-0.4,0-0.5,0.1-0.4,0.5c0,0,0,0,0,0c0.3,0.8,0.6,1.5,0.6,2.4c0,3.4,0,6.7,0,10.1c0,1.2-0.5,1.7-1.6,1.8
			c-0.2,0-0.4,0-0.3,0.3c0.1,0.3,0.6,0.7,1,0.8c0.2,0,0.3,0.1,0.4,0c0.6-0.2,0.5,0.2,0.5,0.5c0,2.9,0,5.8,0,8.7c0,1.6-0.5,3-1.6,4.2
			c0.3,0.1,0.5-0.1,0.7-0.1c2.2-0.8,4.5-1.7,6.7-2.5c0.9-0.3,1-0.6,0.5-1.4c-0.3-0.6-0.5-1.2-0.5-1.9c0-1.7,0-3.4,0-5.1
			c0-1.1,0.1-1.2,1.2-1.6c0.5,2.4,1,4.7,1.4,7.1c0.1,0.6,0.4,1.3-0.1,2c0.2,0.1,0.4,0,0.6,0c0.5-0.1,1.1-0.3,1.6-0.4
			c1.6-0.4,3.2-0.9,4.8-1.4c0.2-0.1,0.6,0.1,0.5-0.3C-353.1,674.6-353.4,674.7-353.6,674.6z M-360.2,662c0,1-1,1.7-2.4,1.8
			c-0.4,0-0.8,0-1.2,0c0.7-0.6,0.7-1.3,0.6-2.1c0-1.7,0-3.5,0-5.2c0-0.4,0.1-0.5,0.5-0.5c0.4,0,0.8,0,1.2,0c0.2,0,0.3,0,0.5-0.1
			c0.5-0.3,0.7-0.2,0.8,0.4C-360.1,658.2-360.1,660.1-360.2,662z"/>
		<path class="st1" d="M-353.8,615.7c-0.5,0.3-1.1,0-1.7,0.2c0-0.3,0.2-0.3,0.3-0.3C-354.7,615.7-354.3,615.5-353.8,615.7z"/>
		<path class="st1" d="M-356.2,616c-0.1,0-0.1,0-0.3,0c0.2-0.1,0.3-0.3,0.4-0.2C-355.9,615.9-356.1,616-356.2,616z"/>
		<path class="st1" d="M-360.2,662c0,1-1,1.7-2.4,1.8c-0.4,0-0.8,0-1.2,0c0.7-0.6,0.7-1.3,0.6-2.1c0-1.7,0-3.5,0-5.2
			c0-0.4,0.1-0.5,0.5-0.5c0.4,0,0.8,0,1.2,0c0.2,0,0.3,0,0.5-0.1c0.5-0.3,0.7-0.2,0.8,0.4C-360.1,658.2-360.1,660.1-360.2,662z"/>
		<path class="st0" d="M-368.3,648.9c0.1,0.1,0.3,0.2,0.2,0.4c-0.2,0.2-0.3,0-0.4-0.1c-0.1-0.1-0.2-0.2-0.5-0.4
			c0.2,0.6-0.1,0.7-0.5,0.7c-0.5,0-0.9,0-1.4,0c-0.4,0-0.6-0.2-0.7-0.6c-0.1-0.8-0.6-1.5-1.1-2.2c0.1,0,0.1,0,0.2,0c0,0,0.1,0,0.1,0
			c0.2,0.1,0.2,0.3,0.4,0.3c0-0.2-0.1-0.4-0.3-0.5c-0.1-0.6,0.2-0.5,0.5-0.3c1,0.6,1.9,1.4,2.8,2.2
			C-368.7,648.5-368.5,648.7-368.3,648.9z"/>
		<path class="st0" d="M-372.4,646.1c0,0.2-0.1,0.3-0.2,0.3c-0.3-0.1-0.5-0.2-0.7-0.5c-0.1-0.2,0.1-0.2,0.3-0.2
			C-372.8,645.8-372.4,645.6-372.4,646.1z"/>
		<path class="st14" d="M-372.5,646.8c-0.1,0-0.1,0-0.2,0C-372.6,646.7-372.6,646.7-372.5,646.8z"/>
	</g>
</g>
<g>
	<path class="st4" d="M-350.9,714.1v-0.7c0-0.1-0.1-0.3-0.2-0.4c-0.1-0.1-0.2-0.1-0.3-0.1h-0.4v1.3h0.7v1h-0.7v1.3h0.6
		c0.2,0,0.3-0.3,0.3-0.9c0,0,0,0,0-0.1c0-0.1,0-0.1,0-0.2h0.9v2.1h-3.7v-0.9h0.4c0.1,0,0.2-0.1,0.2-0.4v-0.5c0-0.4,0-0.5,0-0.6
		c0-0.2-0.1-0.4-0.2-0.5c0.1-0.1,0.2-0.2,0.2-0.4c0-0.1,0-0.2,0-0.5c0-0.4,0-0.6-0.1-0.7c-0.1-0.1-0.2-0.2-0.5-0.2V712h3.7v2.1
		H-350.9z"/>
	<path class="st4" d="M-345.9,713c0,0.1,0,0.3,0,0.6c0,0.3,0,0.4,0,0.5c0,0.2,0.1,0.3,0.2,0.4c0,0-0.1,0.1-0.1,0.2
		c-0.1,0.1-0.1,0.2-0.1,0.3v2.3h-1.5l-0.9-3.7v2.5c0,0.2,0.1,0.3,0.2,0.3c0.1,0,0.2,0,0.2,0v0.9h-1.6v-0.9c0,0,0,0,0.1,0s0,0,0.1,0
		c0.2,0,0.3-0.1,0.3-0.3c0-0.1,0-0.3,0-0.6c0-0.2,0-0.3,0-0.4c0-0.1,0-0.2,0-0.2c0-0.2-0.1-0.4-0.2-0.4c0.1-0.1,0.2-0.3,0.2-0.5
		c0,0,0-0.2,0-0.5c0-0.4,0-0.6,0-0.6c0-0.1-0.2-0.2-0.4-0.1V712h2l0.9,3.4v-2.3c0-0.2-0.1-0.3-0.4-0.3V712h1.6v0.9
		C-345.7,712.8-345.8,712.9-345.9,713z"/>
	<path class="st4" d="M-342.3,714.1v-0.7c0-0.1-0.1-0.3-0.2-0.4c-0.1-0.1-0.2-0.1-0.3-0.1h-0.4v1.3h0.7v1h-0.7v1.3h0.6
		c0.2,0,0.3-0.3,0.3-0.9c0,0,0,0,0-0.1c0-0.1,0-0.1,0-0.2h0.9v2.1h-3.7v-0.9h0.4c0.1,0,0.2-0.1,0.2-0.4v-0.5c0-0.4,0-0.5,0-0.6
		c0-0.2-0.1-0.4-0.2-0.5c0.1-0.1,0.2-0.2,0.2-0.4c0-0.1,0-0.2,0-0.5c0-0.4,0-0.6-0.1-0.7c-0.1-0.1-0.2-0.2-0.5-0.2V712h3.7v2.1
		H-342.3z"/>
	<path class="st4" d="M-337.8,717.3c-0.1,0-0.2-0.1-0.3-0.2c-0.1-0.2-0.2-0.3-0.2-0.5v-0.9c0-0.1,0-0.2-0.1-0.3
		c-0.1-0.1-0.2-0.2-0.2-0.2h-0.5v0.8c0,0.2,0,0.3,0.1,0.4c0,0,0.1,0,0.3,0v0.9h-2.2v-0.9c0.3,0,0.5,0,0.5-0.2c0,0,0-0.3,0-0.7
		c0-0.3,0-0.5,0-0.6c0-0.2-0.1-0.3-0.2-0.4c0.1,0,0.2-0.2,0.2-0.4c0,0,0-0.2,0-0.5c0-0.4,0-0.6,0-0.6c0-0.1-0.1-0.2-0.3-0.2
		c0,0-0.1,0-0.1,0c0,0-0.1,0-0.1,0V712h2.9c0.2,0,0.5,0.1,0.7,0.3c0.3,0.2,0.5,0.6,0.5,1c0,0.1,0,0.1,0.1,0.2
		c-0.1,0.1-0.1,0.2-0.2,0.4c-0.1,0.1-0.1,0.2-0.2,0.3c-0.2,0.3-0.3,0.5-0.5,0.5c0.1,0,0.2,0.1,0.3,0.2c0.2,0.2,0.3,0.4,0.3,0.6v0.7
		c0,0.1,0,0.2,0.1,0.2c0.1,0,0.1,0.1,0.1,0.1c0,0,0,0,0,0v0.9H-337.8z M-338.3,713.1c-0.1-0.1-0.1-0.2-0.2-0.2h-0.5v1.3h0.6
		c0.1,0,0.2-0.1,0.2-0.2c0.1-0.1,0.1-0.3,0.1-0.4C-338.2,713.4-338.2,713.2-338.3,713.1z"/>
	<path class="st4" d="M-332.3,715.4c-0.1,0-0.2,0.1-0.2,0.2v1.7h-0.8c0-0.1-0.1-0.2-0.1-0.3c-0.3,0.3-0.6,0.4-0.9,0.4
		c-0.6,0-1.1-0.3-1.4-0.9c-0.1-0.2-0.2-0.5-0.2-1c-0.1-0.5-0.2-0.8-0.3-0.9c0.2-0.2,0.3-0.5,0.3-0.9c0.2-1.2,0.7-1.8,1.6-1.8
		c0.4,0,0.7,0.1,1,0.4c0,0,0-0.1,0-0.2h0.8v2.1h-1c0-0.8-0.2-1.2-0.6-1.2c-0.4,0-0.6,0.3-0.6,1c0,0.4,0.1,0.6,0.2,0.7
		c-0.1,0.2-0.2,0.5-0.2,0.9c0,0.3,0,0.6,0.1,0.7c0.1,0.2,0.2,0.3,0.4,0.3c0.3,0,0.5-0.2,0.5-0.7c0-0.2-0.1-0.4-0.3-0.4
		c0,0,0,0-0.1,0c0,0,0,0-0.1,0v-0.9h1.9v0.9H-332.3z"/>
	<path class="st4" d="M-327.6,712.8c-0.2,0-0.5,0.2-0.7,0.7c-0.2,0.4-0.3,0.7-0.3,0.9c0,0.1,0,0.2,0,0.3c-0.2,0-0.3,0.1-0.4,0.3
		c-0.1,0.2-0.2,0.5-0.2,0.8c0,0.4,0.1,0.6,0.2,0.6h0.4v0.9h-2.4v-0.9h0.4c0,0,0.1,0,0.1-0.1c0-0.1,0.1-0.1,0.1-0.1v-0.7
		c0-0.1,0-0.2-0.1-0.4c0-0.1-0.1-0.2-0.1-0.2c0-0.1-0.1-0.1-0.1-0.1c0,0-0.1-0.1-0.2-0.2c0,0,0-0.1,0-0.1c0,0,0-0.1,0-0.1
		c0-0.4-0.1-0.8-0.4-1.2c-0.2-0.3-0.4-0.5-0.5-0.5c0,0-0.1,0-0.2,0.1V712h2.3v0.9c0,0-0.1,0-0.1,0c-0.1,0-0.1,0.1-0.1,0.2
		c0,0.1,0.1,0.5,0.4,1.2c0.3-0.7,0.5-1.1,0.5-1.2c0-0.1-0.1-0.1-0.1-0.2h-0.2V712h1.9v0.9C-327.5,712.8-327.5,712.8-327.6,712.8z"/>
	<path class="st4" d="M-319.9,715.3c0,0.2,0,0.3-0.1,0.5c0,0.2,0,0.3-0.1,0.5c-0.1,0.3-0.2,0.6-0.3,0.7c-0.2,0.2-0.4,0.3-0.5,0.3
		h-3.1v-0.9h0.5c0.1,0,0.2-0.2,0.2-0.6v-0.2l0-0.1c0-0.3,0-0.5,0-0.6c0-0.2-0.1-0.3-0.2-0.4c0.1-0.1,0.2-0.2,0.2-0.4
		c0,0,0-0.1,0-0.2c0-0.1,0-0.2,0-0.4c0,0,0-0.1,0-0.2c0-0.1,0-0.1,0-0.2c0-0.3-0.1-0.5-0.2-0.5h-0.4V712h3.1c0.5,0,0.9,0.8,1.1,2.3
		c0,0.1,0.1,0.2,0.2,0.4C-319.8,714.8-319.9,715-319.9,715.3z M-321.3,715c0-0.2-0.1-0.3-0.2-0.4c0.2-0.1,0.2-0.4,0.2-0.8
		c0-0.3,0-0.5-0.1-0.6c-0.1-0.2-0.2-0.3-0.3-0.3h-0.5v1.3c0,0.2,0.1,0.3,0.2,0.5c0,0-0.1,0.1-0.1,0.2c0,0.1-0.1,0.2-0.1,0.2v1.4h0.5
		c0.1,0,0.2-0.1,0.3-0.3c0.1-0.2,0.1-0.4,0.1-0.6C-321.2,715.3-321.2,715.2-321.3,715z"/>
	<path class="st4" d="M-316.3,717.3c-0.1,0-0.2-0.1-0.3-0.2c-0.1-0.2-0.2-0.3-0.2-0.5v-0.9c0-0.1,0-0.2-0.1-0.3
		c-0.1-0.1-0.2-0.2-0.2-0.2h-0.5v0.8c0,0.2,0,0.3,0.1,0.4c0,0,0.1,0,0.3,0v0.9h-2.2v-0.9c0.3,0,0.5,0,0.5-0.2c0,0,0-0.3,0-0.7
		c0-0.3,0-0.5,0-0.6c0-0.2-0.1-0.3-0.2-0.4c0.1,0,0.2-0.2,0.2-0.4c0,0,0-0.2,0-0.5c0-0.4,0-0.6,0-0.6c0-0.1-0.1-0.2-0.3-0.2
		c0,0-0.1,0-0.1,0c0,0-0.1,0-0.1,0V712h2.9c0.2,0,0.5,0.1,0.7,0.3c0.3,0.2,0.5,0.6,0.5,1c0,0.1,0,0.1,0.1,0.2
		c-0.1,0.1-0.1,0.2-0.2,0.4c-0.1,0.1-0.1,0.2-0.2,0.3c-0.2,0.3-0.3,0.5-0.5,0.5c0.1,0,0.2,0.1,0.3,0.2c0.2,0.2,0.3,0.4,0.3,0.6v0.7
		c0,0.1,0,0.2,0.1,0.2c0.1,0,0.1,0.1,0.1,0.1c0,0,0,0,0,0v0.9H-316.3z M-316.8,713.1c-0.1-0.1-0.1-0.2-0.2-0.2h-0.5v1.3h0.6
		c0.1,0,0.2-0.1,0.2-0.2c0.1-0.1,0.1-0.3,0.1-0.4C-316.7,713.4-316.8,713.2-316.8,713.1z"/>
	<path class="st4" d="M-314.8,717.3v-0.9c0,0,0.1,0,0.1,0c0,0,0.1,0,0.1,0c0.2,0,0.3-0.1,0.3-0.2c0,0,0-0.3,0-0.6c0-0.3,0-0.5,0-0.6
		c0-0.2-0.1-0.3-0.2-0.4c0.1-0.1,0.2-0.3,0.2-0.4c0,0,0-0.2,0-0.5c0-0.3,0-0.5,0-0.6c0-0.1-0.1-0.2-0.3-0.2c0,0-0.1,0-0.1,0
		c0,0-0.1,0-0.1,0V712h2.4v0.9h-0.4c-0.1,0-0.2,0.2-0.2,0.5c0,0,0,0.1,0,0.1c0,0,0,0.1,0,0.1c0,0,0,0,0,0.1c0,0,0,0,0,0.1v0.2
		c0,0.3,0.1,0.5,0.2,0.7c-0.1,0.1-0.2,0.3-0.2,0.5c0,0,0,0.2,0,0.5c0,0.3,0,0.5,0,0.5c0,0.2,0.1,0.4,0.2,0.4h0.4v0.9H-314.8z"/>
	<path class="st4" d="M-308.4,713c0,0.1,0,0.3,0,0.6c0,0.3,0,0.4,0,0.5c0,0.2,0.1,0.3,0.2,0.4c0,0-0.1,0.1-0.1,0.2
		c-0.1,0.1-0.1,0.2-0.1,0.3v2.3h-1.5l-0.9-3.7v2.5c0,0.2,0.1,0.3,0.2,0.3c0.1,0,0.2,0,0.2,0v0.9h-1.6v-0.9c0,0,0,0,0.1,0s0,0,0.1,0
		c0.2,0,0.3-0.1,0.3-0.3c0-0.1,0-0.3,0-0.6c0-0.2,0-0.3,0-0.4c0-0.1,0-0.2,0-0.2c0-0.2-0.1-0.4-0.2-0.4c0.1-0.1,0.2-0.3,0.2-0.5
		c0,0,0-0.2,0-0.5c0-0.4,0-0.6,0-0.6c0-0.1-0.2-0.2-0.4-0.1V712h2l0.9,3.4v-2.3c0-0.2-0.1-0.3-0.4-0.3V712h1.6v0.9
		C-308.1,712.8-308.3,712.9-308.4,713z"/>
	<path class="st4" d="M-304.6,717.3c-0.1,0-0.2-0.1-0.3-0.2c-0.1-0.1-0.1-0.3-0.1-0.4v-0.9c0-0.3-0.1-0.4-0.3-0.4
		c-0.1,0-0.2,0.1-0.3,0.2c-0.1,0.2-0.1,0.3-0.1,0.4c0,0.2,0.1,0.3,0.3,0.4v0.9h-2.1v-0.9c0,0,0.1,0,0.1,0s0,0,0.1,0
		c0.2,0,0.3-0.1,0.3-0.3c0-0.1,0-0.3,0-0.6c0-0.3,0-0.5,0-0.5c0-0.2-0.1-0.4-0.2-0.4c0.1-0.1,0.2-0.2,0.2-0.5c0,0,0-0.1,0-0.2
		c0-0.1,0-0.2,0-0.3c0-0.4,0-0.6,0-0.6c-0.1-0.1-0.2-0.2-0.5-0.2V712h2.1v0.9c0,0,0,0-0.1,0c-0.1,0-0.2,0.1-0.2,0.3l0,1.2
		c0.1-0.2,0.2-0.4,0.3-0.6c0.1-0.2,0.3-0.5,0.4-0.8c0-0.1-0.1-0.1-0.2-0.1V712h1.7v0.9c0,0-0.1,0-0.1,0c0,0,0,0-0.1,0
		c-0.2,0-0.4,0.1-0.6,0.4c0,0-0.1,0.1-0.2,0.3c-0.1,0.2-0.2,0.4-0.4,0.7c0,0,0.1,0,0.2,0c0.1,0,0.1,0,0.2,0.1c0.4,0.1,0.6,0.4,0.6,1
		v0.8c0,0.1,0.1,0.2,0.2,0.3c0.1,0,0.2,0,0.2,0v0.9H-304.6z"/>
</g>
<g>
	<path class="st0" d="M-335.8,709.2v-1.4h0.5c0.1,0,0.2-0.3,0.2-0.9v-0.3l0-0.2c0-0.4,0-0.7,0-0.8c0-0.4-0.1-0.6-0.3-0.7
		c0.2-0.3,0.3-0.6,0.3-1c0-0.1,0-0.1,0-0.2c0-0.1,0-0.2,0-0.2v-0.2c0-0.1,0-0.1,0-0.1c0-0.1,0-0.1,0-0.1c0-0.5-0.1-0.7-0.3-0.7h-0.5
		v-1.4h2.9v1.4c0,0-0.1,0-0.1,0c0,0-0.1,0-0.1,0c-0.2,0-0.4,0.1-0.4,0.3c0,0.1,0,0.4,0,1c0,0.4,0,0.7,0,0.8c0,0.3,0.1,0.5,0.3,0.7
		c0,0-0.1,0.1-0.2,0.3c-0.1,0.2-0.1,0.3-0.1,0.4v2.1c0,0,0,0,0.1,0c0,0,0.1,0,0.1,0c0.2,0,0.3-0.1,0.4-0.2c0.1-0.2,0.2-0.4,0.2-0.8
		v-1.2h1.1v3.5H-335.8z"/>
	<path class="st0" d="M-328.1,704.2v-1.4c0-0.1,0-0.2-0.1-0.3c0-0.1-0.1-0.2-0.1-0.2h-0.2v2c0,0,0,0.1,0,0.2c0,0.1,0.1,0.1,0.1,0.2
		c0,0.1,0.1,0.1,0.1,0.2c0,0.1,0.1,0.1,0.1,0.1c-0.1,0.1-0.2,0.3-0.3,0.7c0,0,0,0.3,0,0.8c0,0.6,0,0.9,0,0.9c0,0.3,0.2,0.4,0.4,0.4
		c0,0,0.1,0,0.1,0c0,0,0.1,0,0.1,0v1.4h-2.6v-1.4c0.2,0,0.4,0,0.4,0c0.2,0,0.3-0.2,0.3-0.4v-0.9c0-0.5,0-0.8,0-0.9
		c0-0.3-0.1-0.5-0.3-0.6c0.2-0.3,0.3-0.6,0.3-0.7v-1.9c0,0,0,0-0.1,0c-0.2,0-0.3,0.1-0.3,0.4v1.5h-1.1v-3.3h4.2v3.3H-328.1z"/>
	<path class="st0" d="M-323,709.2c-0.1,0-0.2-0.1-0.4-0.4c-0.1-0.2-0.2-0.5-0.2-0.7v-1.4c0-0.2,0-0.3-0.1-0.5
		c-0.1-0.2-0.2-0.2-0.3-0.2h-0.6v1.2c0,0.3,0,0.5,0.1,0.6c0,0,0.1,0,0.3,0v1.4h-2.6v-1.4c0.3,0,0.5-0.1,0.6-0.3c0-0.1,0-0.4,0-1
		c0-0.5,0-0.8,0-0.9c0-0.3-0.1-0.5-0.3-0.6c0.1-0.1,0.2-0.3,0.3-0.7c0,0,0-0.3,0-0.8c0-0.5,0-0.9,0-0.9c0-0.2-0.2-0.3-0.4-0.3
		c0,0-0.1,0-0.1,0c0,0-0.1,0-0.1,0v-1.4h3.4c0.3,0,0.5,0.1,0.8,0.4c0.3,0.4,0.5,0.9,0.6,1.6c0,0.1,0.1,0.2,0.1,0.4
		c-0.1,0.2-0.1,0.4-0.2,0.5c-0.1,0.2-0.1,0.3-0.2,0.5c-0.2,0.5-0.4,0.8-0.6,0.8c0.1,0.1,0.3,0.2,0.4,0.4c0.2,0.3,0.3,0.6,0.3,0.9
		v1.1c0,0.1,0.1,0.2,0.2,0.3c0.1,0.1,0.1,0.1,0.2,0.1c0,0,0,0,0.1,0v1.4H-323z M-323.6,702.6c-0.1-0.2-0.2-0.3-0.3-0.3h-0.6v2h0.7
		c0.1,0,0.2-0.1,0.3-0.4c0.1-0.2,0.1-0.4,0.1-0.7C-323.5,703-323.5,702.8-323.6,702.6z"/>
</g>
</svg>
