<svg xmlns="http://www.w3.org/2000/svg" width="90" height="110" viewBox="0 0 90 110">
  <path class="cls-1" d="M22.89,106.27v-.7a.76.76,0,0,0-.2-.4.37.37,0,0,0-.3-.1H22v1.29h.7v1H22v1.29h.6c.2,0,.3-.3.3-.89v-.3h.89v2.09H20.1v-.9h.4c.1,0,.2-.1.2-.4v-1.09a.76.76,0,0,0-.2-.5.52.52,0,0,0,.2-.39v-.5c0-.4,0-.6-.1-.7a.59.59,0,0,0-.5-.2v-.69h3.68v2.09Zm5-1.1v1.1a.52.52,0,0,0,.2.39.35.35,0,0,0-.1.2.37.37,0,0,0-.1.3v2.29H26.37l-.9-3.68v2.48c0,.2.1.3.2.3h.2v.9H24.28v-.9h.2a.27.27,0,0,0,.3-.3v-1.19c0-.2-.1-.4-.2-.4a.76.76,0,0,0,.2-.49v-1.1c0-.1-.2-.2-.4-.1v-.79h2l.89,3.38v-2.29c0-.2-.1-.3-.39-.3v-.79h1.59v.89C28.06,105,28,105.07,27.86,105.17Zm3.58,1.1v-.7a.76.76,0,0,0-.2-.4.37.37,0,0,0-.3-.1h-.39v1.29h.69v1h-.69v1.29h.59c.2,0,.3-.3.3-.89v-.3h.9v2.09H28.66v-.9h.39c.1,0,.2-.1.2-.4v-1.09a.76.76,0,0,0-.2-.5.52.52,0,0,0,.2-.39v-.5c0-.4,0-.6-.1-.7a.58.58,0,0,0-.49-.2v-.69h3.68v2.09Zm4.48,3.18c-.1,0-.2-.1-.3-.2s-.2-.3-.2-.5v-.89a.37.37,0,0,0-.1-.3l-.2-.2h-.5v.79c0,.2,0,.3.1.4H35v.9H32.83v-.9c.3,0,.5,0,.5-.2v-1.29a.52.52,0,0,0-.2-.4c.1,0,.2-.2.2-.39v-1.1c0-.1-.1-.2-.3-.2h-.2v-.79h2.89a1.06,1.06,0,0,1,.69.3,1.2,1.2,0,0,1,.5,1c0,.1,0,.1.1.2-.1.1-.1.2-.2.4s-.1.2-.2.29c-.2.3-.3.5-.49.5.09,0,.19.1.29.2a.86.86,0,0,1,.3.6v.69c0,.1,0,.2.1.2a.1.1,0,0,1,.1.1h0v.9h-1Zm-.5-4.18c-.1-.1-.1-.2-.2-.2h-.5v1.29h.6a.21.21,0,0,0,.2-.19.6.6,0,0,0,.1-.4C35.52,105.57,35.52,105.37,35.42,105.27Zm6,2.29a.22.22,0,0,0-.2.2v1.69h-.8c0-.1-.1-.2-.1-.3a1.2,1.2,0,0,1-.89.4,1.48,1.48,0,0,1-1.39-.9,2.1,2.1,0,0,1-.2-1,2.19,2.19,0,0,0-.3-.9,1.2,1.2,0,0,0,.3-.89c.2-1.2.69-1.79,1.59-1.79a1.26,1.26,0,0,1,1,.4v-.2h.8v2.08h-1c0-.79-.2-1.19-.59-1.19s-.6.3-.6,1a.94.94,0,0,0,.2.69,2,2,0,0,0-.2.9c0,.3,0,.59.1.69s.2.3.4.3.49-.2.49-.69c0-.2-.1-.4-.29-.4h-.2v-.9h1.89v.9h0ZM46.06,105c-.2,0-.5.2-.69.7a2.27,2.27,0,0,0-.3.89v.3c-.2,0-.3.1-.4.3a1.88,1.88,0,0,0-.2.8c0,.39.1.59.2.59h.4v.9H42.68v-.9h.4a.1.1,0,0,0,.1-.1.1.1,0,0,1,.1-.1v-.69a.76.76,0,0,0-.1-.4.35.35,0,0,0-.1-.2.1.1,0,0,0-.1-.1l-.2-.2v-.2a1.91,1.91,0,0,0-.4-1.19c-.2-.3-.4-.5-.5-.5a.28.28,0,0,0-.19.1v-.79H44v.89h-.1c-.1,0-.1.1-.1.2a4.64,4.64,0,0,0,.4,1.19,9.87,9.87,0,0,0,.5-1.19c0-.1-.1-.1-.1-.2h-.2v-.89h1.89v.89C46.16,105,46.16,105,46.06,105Zm7.66,2.49a.9.9,0,0,1-.1.5.88.88,0,0,1-.1.49,2.39,2.39,0,0,1-.3.7.93.93,0,0,1-.49.3H49.64v-.9h.5c.1,0,.2-.2.2-.59v-.9a.49.49,0,0,1,0-.79v-1c0-.3-.1-.5-.2-.5h-.4v-.59h3.08c.5,0,.9.79,1.1,2.28,0,.1.1.2.2.4A.55.55,0,0,0,53.72,107.46Zm-1.39-.3a.52.52,0,0,0-.2-.4c.2-.1.2-.4.2-.79s0-.5-.1-.6-.2-.3-.3-.3h-.5v1.29c0,.2.1.3.2.5a.35.35,0,0,0-.1.2.35.35,0,0,1-.1.2v1.39h.5q.15,0,.3-.3a1.21,1.21,0,0,0,.1-.59A.63.63,0,0,0,52.33,107.16Zm5,2.29c-.1,0-.2-.1-.3-.2s-.2-.3-.2-.5v-.89a.37.37,0,0,0-.1-.3l-.2-.2H56v.79c0,.2,0,.3.1.4h.3v.9H54.22v-.9c.3,0,.49,0,.49-.2v-1.29a.55.55,0,0,0-.19-.4c.09,0,.19-.2.19-.39v-1.1c0-.1-.1-.2-.29-.2h-.2v-.79H57.1a1.08,1.08,0,0,1,.7.3,1.19,1.19,0,0,1,.49,1c0,.1,0,.1.1.2-.1.1-.1.2-.19.4s-.1.2-.2.29c-.2.3-.3.5-.5.5.1,0,.2.1.3.2a.86.86,0,0,1,.3.6v.69c0,.1,0,.2.1.2s.09.1.09.1h0v.9h-1Zm-.5-4.18c-.1-.1-.1-.2-.2-.2h-.49v1.29h.59a.21.21,0,0,0,.2-.19.6.6,0,0,0,.1-.4A1.69,1.69,0,0,1,56.8,105.27Zm2,4.18v-.9H59c.2,0,.3-.1.3-.2v-1.19a.52.52,0,0,0-.2-.4.76.76,0,0,0,.2-.4v-1.09c0-.1-.1-.2-.3-.2h-.2v-.89h2.39v.89h-.4c-.1,0-.2.2-.2.5v.6a1.44,1.44,0,0,0,.2.69.76.76,0,0,0-.2.5v1c0,.2.1.4.2.4h.4v.9H58.79Zm6.37-4.28v1.1a.52.52,0,0,0,.2.39.35.35,0,0,0-.1.2.37.37,0,0,0-.1.3v2.29H63.67l-.9-3.68v2.48c0,.2.1.3.2.3h.2v.9H61.58v-.9h.2a.26.26,0,0,0,.29-.3v-1.19c0-.2-.1-.4-.19-.4a.81.81,0,0,0,.19-.49v-1.1c0-.1-.19-.2-.39-.1v-.79h2l.89,3.38v-2.29c0-.2-.1-.3-.4-.3v-.79h1.59v.89A.55.55,0,0,0,65.16,105.17Zm3.78,4.28c-.1,0-.2-.1-.3-.2a.6.6,0,0,1-.1-.4V108c0-.3-.1-.4-.3-.4s-.2.1-.3.2a.75.75,0,0,0-.1.39c0,.2.1.3.3.4v.9H66.05v-.9h.2a.27.27,0,0,0,.3-.3v-1.09c0-.2-.1-.4-.2-.4a.58.58,0,0,0,.2-.49v-1.1a.59.59,0,0,0-.5-.2v-.79h2.09v.89H68c-.1,0-.2.1-.2.3v1.19l.3-.59a5.94,5.94,0,0,0,.4-.8c0-.1-.1-.1-.2-.1v-.89H70v.89h-.2a.7.7,0,0,0-.59.4,1.24,1.24,0,0,0-.2.3,5.06,5.06,0,0,1-.4.69h.2c.1,0,.1,0,.2.1.39.1.59.4.59,1v.79c0,.1.1.2.2.3H70v.9H68.94Z" fill="#fe0000"/>
  <path class="cls-2" d="M37.91,101.39V100h.49c.1,0,.2-.3.2-.9V97.81c0-.4-.1-.6-.3-.69a1.69,1.69,0,0,0,.3-1v-.8c0-.49-.1-.69-.3-.69h-.49V93.24h2.88v1.39h-.2c-.2,0-.4.1-.4.3v1.79a.89.89,0,0,0,.3.69,1.24,1.24,0,0,0-.2.3.76.76,0,0,0-.1.4v2.09h.2a.52.52,0,0,0,.4-.2,1.55,1.55,0,0,0,.2-.8V98H42v3.48H37.91Zm7.65-5V95a.37.37,0,0,0-.1-.3.36.36,0,0,0-.09-.2h-.2v2.19c0,.1.1.1.1.2s.1.1.1.2a.09.09,0,0,0,.09.09,1.7,1.7,0,0,0-.29.7V99.6a.36.36,0,0,0,.39.4h.2v1.39H43.18V100h.39c.2,0,.3-.2.3-.4V97.81a.6.6,0,0,0-.3-.6,1.66,1.66,0,0,0,.3-.69V94.63h-.1c-.2,0-.29.1-.29.4v1.49h-1.1V93.24h4.18v3.28h-1Zm5.08,5c-.1,0-.2-.1-.4-.4a1.76,1.76,0,0,1-.2-.69V98.91a.9.9,0,0,0-.1-.5c-.1-.2-.2-.2-.3-.2h-.59V99.4c0,.3,0,.5.09.6h.3v1.39H46.86V100a.59.59,0,0,0,.59-.3V97.81a.62.62,0,0,0-.29-.6,1.57,1.57,0,0,0,.29-.69V94.83c0-.2-.2-.3-.39-.3h-.2V93.14h3.38a1,1,0,0,1,.79.39,3.35,3.35,0,0,1,.6,1.6c0,.1.1.19.1.39s-.1.4-.2.5-.1.3-.2.5c-.2.5-.4.79-.59.79a1.49,1.49,0,0,1,.39.4,1.61,1.61,0,0,1,.3.9V99.7c0,.1.1.2.2.3s.1.1.2.1h.1v1.39H50.64ZM50,94.83q-.15-.3-.3-.3h-.6v2h.7c.1,0,.2-.1.3-.4a1.48,1.48,0,0,0,.1-.7C50.14,95.23,50.14,95,50,94.83Zm14.22-3.19L61.58,89a3.09,3.09,0,0,1-.1-4.28c.1-.1.4-.2.3-.4s-.4-.09-.6,0a3.74,3.74,0,0,0-2.39,4.38,8.74,8.74,0,0,0,1.89,3.68A1.36,1.36,0,0,1,60,94.63a13.37,13.37,0,0,1-3.49.5h-.29a.9.9,0,0,0-.1-.5c.1-.1.2-.2.3-.2h.29V93H53.32v1.39h.4c.1,0,.1.1.2.2a9.22,9.22,0,0,1-.2,1.39c-.2.7-.3,1.1-.5,1.1.1.09.1.29.1.49s-.1.5-.2,1.1a4.08,4.08,0,0,1-.1.49c0,.1-.1.3-.1.4-.1.3-.19.5-.39.4h-.2v1.39h2.09V100h-.3c-.2,0-.3-.2-.3-.5a1.68,1.68,0,0,1,.1-.59h1.39a1,1,0,0,1,.1.49.59.59,0,0,1-.2.5h-.3v1.39H57.5V99.9c-.2,0-.4,0-.4-.1a.35.35,0,0,1-.1-.2c0-.1.1-.1.3-.1l3.08-.3a7.59,7.59,0,0,0,3.19-1.09A4.17,4.17,0,0,0,64.26,91.64Zm-9.94,5.87.39-2.09.4,2.09ZM36.81,94.73v1.69a1.45,1.45,0,0,0,.2.7,1,1,0,0,0-.2.29.76.76,0,0,0-.1.4V99.5c0,1.3-.59,2-1.69,2a2.34,2.34,0,0,1-1.19-.3,1.56,1.56,0,0,1-.7-1.49,3.72,3.72,0,0,0-1.59-.4,16,16,0,0,1-3.08-.39A4.58,4.58,0,0,1,25.18,96a4.2,4.2,0,0,1,.89-4.28,34,34,0,0,1,2.69-2.68,3,3,0,0,0,0-4.48c-.1-.1-.2-.2-.1-.3s.29-.09.49,0a3.54,3.54,0,0,1,2.39,2.49,5.35,5.35,0,0,1-.8,4.28c-.29.5-.69,1-1,1.49a1.31,1.31,0,0,0,.4,2.09A5.63,5.63,0,0,0,33,95c.1,0,.2,0,.3-.2v.1c0-.3-.2-.4-.3-.4h-.2V93.14h2.49v1.39h-.2c-.2,0-.3.1-.3.4v1.59a.87.87,0,0,0,.3.69,4.88,4.88,0,0,0-.3.7v.7a3.42,3.42,0,0,0,.1,1.19.59.59,0,0,0,.5.2.37.37,0,0,0,.3-.1.22.22,0,0,0,.2-.2.75.75,0,0,0,.1-.5V97.91a.91.91,0,0,0-.3-.7,2.19,2.19,0,0,0,.3-.69V94.83c-.1-.2-.2-.3-.4-.3V93.14h2v1.39C37.11,94.43,36.91,94.53,36.81,94.73Z" fill="#fc0"/>
  <path class="cls-1" d="M49.84,69.76l-.6,1.79h1Zm0,0-.6,1.79h1Zm34.31,6.07c-1-.1-1.89.2-2.88-.2l-6.86-2.38a9.93,9.93,0,0,1-1.59-.6c1.29-.8,1.49-1.69.89-2.69-1,.7-1.09.8-2.29.5s-2.48-.6-3.78-1A65.35,65.35,0,0,0,59,67.87,78.64,78.64,0,0,0,49.34,67a112.9,112.9,0,0,0-11.63.3c-3.19.2-6.27.69-9.35,1.09a70.83,70.83,0,0,0-9,2c-.8.2-1.59.5-2.19-.3-.1-.2-.2-.1-.3.1A1.92,1.92,0,0,0,17,72a3.21,3.21,0,0,0,.89.7.34.34,0,0,1-.29.1l-8.76,3a2.68,2.68,0,0,1-.89.1,8.78,8.78,0,0,0-2.29,0,.31.31,0,0,1,.1.2c2.39.89,4.77,1.69,7.06,2.59a1.32,1.32,0,0,1,.7.59c.6,1.2,1.19,2.29,1.89,3.48.2.4.4.5.79.4,1.3-.3,2.49-.6,3.78-.79l5.77-1.2a.52.52,0,0,0,.4-.2c.1-.2-.1-.2-.2-.3-.2-.29-.7-.39-.7-.79V77.12c.6.5,1.1.9,1.89.7,1.79-.4,3.68-.5,5.47-.8l6-.59a76.43,76.43,0,0,1,13.53-.1c2.19.2,4.47.4,6.66.69,1.3.1,2.59.4,3.88.5,1,.1,2,.7,2.89-.6v2.19a1.36,1.36,0,0,1-.6,1.4c-.2.09-.4.19-.4.49s.4.3.7.3l9.54,1.79c.4.1.6,0,.7-.4.6-1.29,1.19-2.48,1.79-3.68a.83.83,0,0,1,.5-.49c1.49-.5,3-.9,4.57-1.4,1-.29,2-.59,3.09-1A1.82,1.82,0,0,0,84.15,75.83ZM18.21,78.62l-1.09,1.19-.2-1.59-1.49-.7,1.49-.69.2-1.6,1.09,1.2,1.59-.3L19,77.52l.79,1.39Zm13.23-3.19a1.79,1.79,0,0,1-1.09.8,2.38,2.38,0,0,1-1.59-.3v.2c0,.1.1.2.1.3l-1.2.3-.5-2.09,1.3-.3c.2.6.59.89,1.19.7s.6-.3.6-.7-.3-.5-.6-.4-.4.2-.4.5a1.22,1.22,0,0,0-.49-.5h-1c-.6-.2-1-.69-1.29-1.69a3.44,3.44,0,0,1,.2-2.29,1.78,1.78,0,0,1,1.19-.89,1.7,1.7,0,0,1,1.39.3.76.76,0,0,0-.1-.4l1-.2.5,2.29-1.1.3a1.25,1.25,0,0,0-.5-.9,1.42,1.42,0,0,0-.69-.1c-.4.1-.6.4-.5.7s.4.59.7.49.3-.19.39-.39a.68.68,0,0,0,.7.39h.6a2.14,2.14,0,0,1,.79.5,2.71,2.71,0,0,1,.5,1.19A2.67,2.67,0,0,1,31.44,75.43ZM40,70.66v.1c0,.1.1.1.1.2s.1.1.1.2a.1.1,0,0,0,.1.1.59.59,0,0,0-.3.59v.7c0,.5,0,.79.1.79a.46.46,0,0,0,.5.3h.2v1.2l-3,.1v-1.2h.39c.2,0,.3-.2.3-.4V71.85a.53.53,0,0,0-.3-.49,1.55,1.55,0,0,0,.3-.6l-.1-1.69h-.1c-.2,0-.29.1-.29.3v1.29h-1.2l-.1-2.89,4.78-.19.1,2.88h-1.2V69.27a.37.37,0,0,0-.1-.3l-.1-.1H40ZM53,75l-3-.1v-1.2h.3a.52.52,0,0,0,.2-.4.59.59,0,0,0-.1-.39l-1.59-.1a1.07,1.07,0,0,0-.1.49c0,.3.1.4.3.4h.39v1.2L47,74.84v-1.2h.29c.2,0,.3-.1.4-.39,0-.1.1-.2.1-.3a4.33,4.33,0,0,0,.1-.5c.1-.5.2-.8.2-.9s0-.29-.1-.39c.2,0,.4-.3.6-1a3.41,3.41,0,0,0,.3-1.19l-.2-.2h-.5V67.58l3.88.1v1.19h-.3c-.1,0-.2.1-.3.2a5,5,0,0,0,.2,1.29c.2.6.3.9.5.9-.1.1-.1.29-.1.59a4.59,4.59,0,0,0,.1,1,2.18,2.18,0,0,0,.3.89,2,2,0,0,0,.49.1Zm10.15-3c-.1.1-.2.3-.3.4-.3.4-.6.6-.8.6.1.1.3.2.4.39a.83.83,0,0,1,.2.8l-.2.89a.37.37,0,0,0,.1.3c.1.1.1.1.2.1h.1l-.2,1.2-1.49-.3c-.1,0-.3-.1-.4-.4a.82.82,0,0,1-.1-.7l.2-1.19a1.09,1.09,0,0,0-.1-.5c-.1-.2-.2-.2-.3-.3l-.69-.09-.2,1c0,.3,0,.5.1.5a1.58,1.58,0,0,1,.4.1L59.89,76,57,75.53l.2-1.19c.4.1.6,0,.7-.2s.1-.3.2-.89a3.22,3.22,0,0,0,.1-.8,1.07,1.07,0,0,0-.2-.6c.2,0,.29-.2.39-.49a2.44,2.44,0,0,0,.1-.7,3.75,3.75,0,0,0,.1-.8c0-.2-.1-.29-.39-.29h-.3l.2-1.2,3.78.6a1,1,0,0,1,.79.5,2.4,2.4,0,0,1,.5,1.49.37.37,0,0,0,.1.3C63.37,71.75,63.27,72,63.17,72.05Zm9,6.07-.5,1.59-.89-1.29H69.14l1-1.3-.5-1.49,1.49.5,1.3-1v1.6l1.29.89ZM61.18,70.46l-.7-.1-.3,1.69.7.1c.1,0,.2-.1.4-.3a1.07,1.07,0,0,0,.2-.59v-.6C61.38,70.56,61.28,70.46,61.18,70.46ZM49.24,71.55h1l-.4-1.89Z" fill="#fe0000"/>
  <path class="cls-2" d="M54.61,64.39c.5-.26,1-.51,1.51-.79a1.54,1.54,0,0,0,.79-1.49V57.63c.5,0,.7.2.7.7v4.38a.81.81,0,0,1-.4.79c-.79.5-1.59,1.1-2.38,1.69-.2.1-.4.2-.4.5s.3.3.49.3a10.34,10.34,0,0,1,1.57.18c.35,0,.7.12,1,.19s.59.18.91.23l2.2.37.73.12,5.67.89a10.66,10.66,0,0,0,3.08.2.71.71,0,0,0,.6-.3,4.63,4.63,0,0,0,.89-1.39l3.18,2.89a3.83,3.83,0,0,0,.8.49c2.39.8,4.77,1.59,7.26,2.29a2.55,2.55,0,0,0,2.39-.3l3.28-2.38a1.22,1.22,0,0,0,.6-1.2V60.71a.76.76,0,0,1,.3-.69,1.29,1.29,0,0,0,.79-1.49v-.8c0-.4-.1-.6-.5-.5s-.59-.2-.59-.59V45c0-.3.1-.5-.1-.7-.6,0-1,.5-1.39.8s-.5.2-.8,0c-.8-.8-1.59-1.49-2.39-2.29a2,2,0,0,0-.79-.4,27,27,0,0,1-2.89-.1,2.15,2.15,0,0,1-.79.1.1.1,0,0,1,.1-.1,11.06,11.06,0,0,0,2.48-4c.1-.3.2-.3.4-.2a9.75,9.75,0,0,1,4.28,2.18A9.33,9.33,0,0,1,88.83,43a3,3,0,0,1,.5,1.29c.1.1.1.3.29.2s.1-.2.1-.3a8.23,8.23,0,0,0-1-5.07A19.56,19.56,0,0,0,83.56,34a.82.82,0,0,1-.5-.5c3.38.2,5.57,2,7,5a2.8,2.8,0,0,0,0-1.29,7.67,7.67,0,0,0-3-4.67A15.25,15.25,0,0,0,83,30.08a2.85,2.85,0,0,1-1.69-1.69A19.52,19.52,0,0,0,76,21.92a57.32,57.32,0,0,0-7.86-4.87A27.73,27.73,0,0,0,61.38,14c-1.89-.4-3.68-.8-5.57-.2a31.69,31.69,0,0,0-7.26,3.28,1,1,0,0,1-1.39-.1,6,6,0,0,0-2.79-1.79,1,1,0,0,1-.7-.4c-1.79-1.49-3.58-3.08-5.27-4.57a2.06,2.06,0,0,0-1.29-.5c-.6-.1-1.19-.1-1.79-.2-.2,0-.5.1-.5-.3s-.2-.79.4-.89a.68.68,0,0,0,.6-.9c-.1-.29.1-.49.4-.39h1.29A2.28,2.28,0,0,0,39.8,4.62c0-.4-.1-.5-.5-.5H36.91c-.5,0-.69-.2-.69-.6a8.31,8.31,0,0,0-.8-2.68.76.76,0,0,0-.9-.5c-1.09,0-2.28-.1-3.38,0a.8.8,0,0,0-.79.4,7.38,7.38,0,0,0-1.3,2.09c-.19.3-.29.4-.69.2a2.21,2.21,0,0,0-2.09,0c-.7.4-1.29.89-2,1.29-.1.1-.3.1-.3.3s.2.2.4.3c.7.2,1.39.39,2.19.59-.2.1-.3.2-.4.2s0,.2-.1.2.1.2.3.2h1.09c-.59.5.3.8-.1,1.19.1.1.3.2.1.4s-.2-.1-.2-.2c-.29-.39-.69-.79-1-1.19a.25.25,0,0,0-.4-.1v1c-.69-.39-1.19-1.49-2.19-.69-.39.3-.89.69-.39,1.39H19.7a10.78,10.78,0,0,0-4.37.6c-1.59.59-3.38.89-4.87,1.89-1.1.69-2.19,1.29-3.29,2a6.87,6.87,0,0,0-1.39,1c-.2.1-.4.3-.2.6s.4.2.6.1c.6-.2,1.09-.4,1.79-.7,0,.4-.1.7-.1.9s0,.29.1.29.2-.1.3-.19c.4-.4.69-.8,1.09-1.2A.73.73,0,0,1,10,13c.2.1.1.3.1.5v1.19a.37.37,0,0,0,.1.3c.2.1.2-.1.3-.2a9.57,9.57,0,0,1,1.09-1.69,1.84,1.84,0,0,1,1.39-.79c1.49-.3,3-.5,4.38-.9,1.09-.4,1.79.1,2.68.7-1.29,1.09-2.48,2.09-3.78,3.08-.1.1-.29.2-.2.3s.3.1.4.1a.76.76,0,0,0,.5-.2A22.32,22.32,0,0,0,20.5,13c.2-.1.4-.39.6-.2s.1.4,0,.6c-.2.7-.5,1.39-.7,2-.1.2-.2.4,0,.6s.4,0,.6-.2a4.26,4.26,0,0,0,1-1.69c.1-.3.1-.9.5-.9s.7.4,1,.8c0,.1.1.1.1.2.9,1.69,1.89,3.38,2.79,5.07a2.36,2.36,0,0,1,.2.79,21.41,21.41,0,0,1-.8,6.67c-.3,1.29-.3,2.39,1.1,3.18a1.26,1.26,0,0,1,.19,1.79A1.38,1.38,0,0,0,26.57,33a.71.71,0,0,1-.3.6c-2.59,1.79-5,3.78-8.06,4.68a6.14,6.14,0,0,0-3.88,3.18c-.1.2-.29.3,0,.5a3.42,3.42,0,0,0,2.19,0,2.62,2.62,0,0,1,2.09-.6c.4,0,.5.2.4.5v1.89c0,.19,0,.39.2.39s.2-.1.3-.2c.29-.19.49-.49.79-.69.7-.4,1.29,0,1.39.79v.9c0,.2,0,.3.1.4s.2-.1.3-.2a1.58,1.58,0,0,1,.9-.6c-.3.6-.9.8-.9,1.59.4-.3.7-.49,1-.69a22.34,22.34,0,0,1,2.58-1.6c.1-.09.3-.29.4-.09s.4.19.6.19h4.17a.87.87,0,0,0,.7-.19c.3-1,.8-2,1.19-3s.3-1.19-.39-1.89a8.87,8.87,0,0,1-.9-1l.1-.1c.8.69,1.49,1.39,2.29,2.09a1.24,1.24,0,0,0-.5.49c-.5,1.1-1.09,2.09-1.59,3.19-.1.2,0,.29.1.39a4.54,4.54,0,0,1,3.68.9c.2.2.5.3.7.5.39.3.59.2.79-.2a2.3,2.3,0,0,1,1.89-1.29.64.64,0,0,0,.5-.5c.59-1.2,1.19-2.49,1.79-3.68a1.51,1.51,0,0,0-.1-1.59c-1.29-1.89-2.49-3.88-3.68-5.77-.3-.2-.4-.6-.6-1,.5.2.6.5.8.8.59.7,1.19,1.39,1.79,2.09L42,37.34a1.63,1.63,0,0,1,.1,1.89c-.69,1.29-1.29,2.59-2,3.88-.29.6-.19.79.5.79h9.35a6.81,6.81,0,0,1,3.18.8,1.82,1.82,0,0,0,2.29-.3,2.59,2.59,0,0,1,1.69-.69c.2-.3-.2-.2-.3-.4A7.18,7.18,0,0,1,53,42a2,2,0,0,1-.79-.59,1.5,1.5,0,0,1,1,.4,10,10,0,0,0,2.89.89,9.7,9.7,0,0,0,5.07-.4c.1-.1.3-.3.3-.2.2.1,0,.3-.1.5a4.49,4.49,0,0,1-2.19,3c-.5.29-1,.69-1.59.19a.75.75,0,0,0-.5-.1,9.38,9.38,0,0,0-1.59,0c-1.39.5-2.39-.29-3.48-.89a2.92,2.92,0,0,0-1.59-.4c-3.28,0-6.67.1-9.95,0a3.22,3.22,0,0,0-3.38,1.49L37,46c-.2.3-.4.4-.79.1a20.68,20.68,0,0,0-1.8-1.19,1,1,0,0,0-.79-.2H25.37a1.25,1.25,0,0,0-.59.1,36.39,36.39,0,0,0-3.88,3.08V44.3a.87.87,0,0,0-.3-.69c-.3-.2-.4.1-.6.29l-.69.7c-.2.2-.4.3-.6.1-.8-.6-1.59-1.09-2.29-1.69a1.41,1.41,0,0,0-1.09-.3H3.79c-1,0-1,0-.69,1a8.55,8.55,0,0,1,.79,2.68c.1,3.48,0,7,0,10.44,0,.5-.2.6-.7.7a7.47,7.47,0,0,1-2.08-.3c-.3,0-.6-.2-.8.1s.1.6.3.8L3,60.51c.1.1.29.3.39.3.5.1.5.3.5.7a87.1,87.1,0,0,0-.1,8.85.71.71,0,0,1-.3.6C2.6,72.25,1.7,73.44.91,74.84c-.1.1-.3.29-.1.49s.3.2.59.1c1.5-.69,3.19-1.29,4.68-1.89,2.19-.79,4.28-1.69,6.46-2.48,2.39-.8,4.88-1.4,7.36-2.09,1.4-.4,2.79-.9,4.28-1.2,2.19-.39,4.38-.59,6.56-.89,1.7-.2,3.39-.4,4.68-1.59.3-.2.6-.5.89-.7a5.64,5.64,0,0,1,1.3-.79v1.09c0,.8.1.9.89.9H50.84a4.25,4.25,0,0,0,1.57-.3c.25-.11.5-.22.75-.35s.23-.15.35-.21a2.3,2.3,0,0,0,.32-.15C54.09,64.63,54.35,64.53,54.61,64.39Zm24.67-21h4.18a1.11,1.11,0,0,1,.79.3c.8.79,1.59,1.49,2.39,2.18s.9.6,1.59,0a.52.52,0,0,1,.4-.2v11a.84.84,0,0,1-.2.59c-.2.7,0,.9.6.9.2,0,.59-.2.69.2s.2.79-.29,1.09c-.2.1-.3.3-.6.3h-.2c-.1,3-.1,6,0,9,0,.1,0,.2-.1.2s-.1.2-.3.2a21.21,21.21,0,0,1-3.68,2.48,2.16,2.16,0,0,1-1.59,0c-2.39-.79-4.77-1.69-7.26-2.48a1.79,1.79,0,0,1-.7-.5l-.49-.5-2.29-2.28c-.6-.6-.8-.5-1.19.19-.5,1.1-.7,1.5-1.4,1.5-.3,0-.59-.1-1.19-.1l-3.25-.54L63,66.47l-1.1-.19a3,3,0,0,0-.42,0,5.1,5.1,0,0,1-.78-.14c-.28,0-.57-.07-.85-.11s-.45-.08-.67-.13a10.23,10.23,0,0,0-1.1-.23c-.36,0-.73-.1-1.09-.17l-1.25-.18a11.4,11.4,0,0,1,1.89-1.39,1.21,1.21,0,0,0,.7-1.19c0-1.6,0-3.29-.1-4.78,0-.4.1-.89-.6-.89-.1,0-.1-.1-.2-.2l-.1-.1-.1-.1c-.59-.3-.89-.2-.89.5v4.67c0,.3.1.6-.1.8a3,3,0,0,1-1.2.69c-.19.1-.29.2-.49.3s-.3.1-.4.2a1.17,1.17,0,0,1-.51.31.85.85,0,0,0-.46.26.29.29,0,0,0-.1,0A4,4,0,0,1,51.7,65a6.82,6.82,0,0,1-1.56.15H38.8c-.2,0-.5.1-.6-.2a.56.56,0,0,1,.3-.7,2.48,2.48,0,0,0,1.3-2.38c-.1-1.4,0-2.89,0-4.38,0-.4,0-.7-.5-.6-.3,0-.4-.2-.6-.39-.6.1-.69.49-.69,1V62c0,.19.09.39-.1.59a3,3,0,0,1-1.5,1.2,1.53,1.53,0,0,1-.79.59,7.33,7.33,0,0,1-1.39,1c-.1.1-.2.1-.3.2a.52.52,0,0,1-.4.2.63.63,0,0,1-.7,0v.09c-.1.3-.29.2-.49.2s-.6.1-.9.1h-.6a22.86,22.86,0,0,1-4.47.6c-.3.3-.8.1-1.19.2-2.29.6-4.58,1.19-7,1.79-.89.2-1.79.5-2.68.7s-1.89.49-2.89.79l-1.79.6c-1.29.49-2.48,1-3.78,1.49-1.69.7-3.38,1.39-5.27,2,.6-.8,1-1.59,1.59-2.29a3.15,3.15,0,0,0,.8-2V60.51c0-.29-.1-.49-.3-.49h-.1a.85.85,0,0,1-.6-.3c-.49-.6-1.09-1.2-1.59-1.79A7.08,7.08,0,0,1,3,58c.89,0,1.29-.3,1.29-1.2V45.89a5.86,5.86,0,0,0-.2-1.29c-.1-.4-.3-.8-.4-1.29H15.23a1,1,0,0,1,.79.2c.7.49,1.4,1.09,2.09,1.59s.9.59,1.59-.1a2.74,2.74,0,0,0,.4-.5V55.34c0,.2-.2.6.3.7s.6-.2.7-.5a1.7,1.7,0,0,0,.1-.7V49.08a1.19,1.19,0,0,1,.49-1.1,36.18,36.18,0,0,1,3.09-2.38,1.05,1.05,0,0,1,.79-.2H33a5.54,5.54,0,0,1,2.39,1,3.51,3.51,0,0,0,.8.5.71.71,0,0,0,1.09-.2,8.89,8.89,0,0,1,.89-1c-.19,2.69-.1,5.38-.19,8,0,.2-.1.3-.2.5-.1.6.39.5.69.6.9.09,1.3-.2,1.3-1.1.09-1.89.09-3.88.09-5.77a4.05,4.05,0,0,0-.19-1.49A5.7,5.7,0,0,1,39.2,45H50.54a1.38,1.38,0,0,1,.59.2c.8.4,1.5.89,2.29,1.19.5.2.6.5.2.9a.73.73,0,0,0-.2.39,11.26,11.26,0,0,0-.6,4.08h1.1c.3-.2.69-.1,1.09-.2s.5-.1.8-.1.4-.3.4.1c-.1.9.2,1.89-.2,2.79-.1.1,0,.3.1.4a2.24,2.24,0,0,0,1.59.09c.3,0,.4-.39.4-.69V50.47c0-.5.19-.6.59-.7a4.45,4.45,0,0,1,2.29,0c.2,0,.4.1.6.1a1.23,1.23,0,0,0,.59-.1,4.09,4.09,0,0,0,1.3-1c.69-1,1.39-2,2-3a.74.74,0,0,1,.69-.39,14.06,14.06,0,0,1,2.89.2s.16-.06.22-.07a.5.5,0,0,1,.21,0,.44.44,0,0,1,.31.27,1.55,1.55,0,0,1,.08.23,6.09,6.09,0,0,0,1,1.54c.19.27.42.57.77.59a1.7,1.7,0,0,0,1.13-.44c.33-.27.61-.61,1-.87s.52-.43.76-.64l.72-.63a2.76,2.76,0,0,1,.67-.51,14.55,14.55,0,0,0,1.51-.89,4.25,4.25,0,0,0,.54-.32,1.38,1.38,0,0,1,.5-.2A3.43,3.43,0,0,1,79.28,43.41ZM17.62,8.7h-.3c.2-.1.3-.3.4-.2S17.72,8.7,17.62,8.7Zm.69-.1c0-.3.2-.3.3-.3.5,0,.9-.2,1.39.1C19.41,8.7,18.91,8.4,18.31,8.6Zm4.78,35.8a.1.1,0,0,1-.1-.1c0-.1.1-.1.2-.1s.1,0,.19.1C23.19,44.3,23.09,44.3,23.09,44.4Zm4.27-18.6c-.1.2,0,.5-.2.6v.1c0,.1-.1.1-.1,0,.1-1.09-.09-2.19.1-3.18V19.54a2.2,2.2,0,0,0-.1-.8,30.57,30.57,0,0,1-1.29-3.08,3,3,0,0,0-.4-.8c.4,0,.4.3.5.5.6,1,1.29,2,1.89,3.08a1.27,1.27,0,0,1,.1.6v2.19A10.1,10.1,0,0,1,27.36,25.8ZM31.14,1.14a.14.14,0,0,1,0-.2.3.3,0,0,1,.4,0C31.44,1.14,31.34,1.14,31.14,1.14Zm1.2,26.65a.1.1,0,0,1-.1-.1l.2-.2a.1.1,0,0,0,.1.1Zm.39-.4a.26.26,0,0,1,.3-.29l.1.1C32.93,27.3,32.83,27.49,32.73,27.39Zm1.2-1a5.44,5.44,0,0,0,.59-.4C34.52,26.4,34.33,26.5,33.93,26.4ZM38.8,57a.37.37,0,0,1,.4.4v.2c0,1.49-.1,2.88-.1,4.38,0,.39-.1.59-.4.69V57.43C38.6,57.33,38.5,57,38.8,57Zm.4-9.15v5.67c0,.2-.1.3-.4.3s-.2-.2-.2-.4v-8A3.69,3.69,0,0,1,39.2,47.88Zm14.72.3c.5-1.79,1.09-2.48,3-1.89A5,5,0,0,0,53.92,48.18Zm3.48,5.37c0,.4-.1.4-.4.4s-.4,0-.4-.3V51.07c0-.5.4-.6.8-.9ZM78.29,30.88a1,1,0,0,1,1.19-1,.83.83,0,0,1,.6,1.1c-.5.49-.3,1-.1,1.49a4.26,4.26,0,0,0,2,2.19A35.69,35.69,0,0,1,86,37.34,4.41,4.41,0,0,1,87.64,39c.29,0,.29.2.39.5-.2-.2-.39-.2-.39-.5-.7-.3-1.2-.89-1.8-1.19a8.31,8.31,0,0,0-1.69-.7A8.89,8.89,0,0,1,79,33.46,3.44,3.44,0,0,1,78.29,30.88ZM73.91,43.61a.43.43,0,0,1,.34-.48.9.9,0,0,0-.33.56S73.92,43.64,73.91,43.61Zm1.15-1.18h0a1.23,1.23,0,0,0-.28.28l-.07.06C74.82,42.57,74.93,42.45,75.06,42.43Zm-37.95-23v2.09c-.2-.1-.1-.3-.2-.4A2.5,2.5,0,0,1,37.11,19.44Zm2.69,4.77a.42.42,0,0,1-.7,0c-.4-.4-.7-.3-1.19,0L35.52,25.7c-.2.1-.3.3-.6.1.5-.39,1.1-.79,1.59-1.19s1.2-.9,1.89-1.39c.2-.1.3-.2.2-.5a8.34,8.34,0,0,1-.69-3.78,26.77,26.77,0,0,0-.1-2.78L45,19.44C43.08,21.13,41.49,22.72,39.8,24.21Zm26,18.7c0,.2-.1.3-.1.5a.7.7,0,0,1,0-.6.6.6,0,0,1,.1-.4,8,8,0,0,0,0-2.68,2.33,2.33,0,0,0-2.28-2h-1.4a4.78,4.78,0,0,1-2.88-.7c-.2-.1-.3-.1-.5-.2a.6.6,0,0,1,.7,0c.2,0,.4,0,.4-.2s-.2-.19-.3-.29A9.67,9.67,0,0,1,57.8,34a4,4,0,0,0-3.88-2.59h-.2a4.39,4.39,0,0,1,4.38,1.69c1.29,2.49,3.48,3.58,6.06,4.18.3.1.6.1.9.2a1.78,1.78,0,0,1,1.49,2,7.56,7.56,0,0,1-.6,3C66,42.61,65.85,42.71,65.75,42.91Zm1.69.4c-.29.4-.59.69-.89,1.09-.1.1-.3.2-.4.1s0-.2.1-.3c.2-.3.3-.69.5-1,1.19-2,.79-4,.2-6a1.42,1.42,0,0,1-.2-.6c-.2-.29-.3-.49-.5-.79a.74.74,0,0,1,.6.6c.5.29.3-.2.4-.4a7.6,7.6,0,0,1,.49-2.49.55.55,0,0,1,.3-.5.83.83,0,0,1-.2.8,8.62,8.62,0,0,0,.4,5.47A4.68,4.68,0,0,1,67.44,43.31ZM65.26,17.85a27.36,27.36,0,0,0-4.88-1.69.67.67,0,0,0-.89.59,2.57,2.57,0,0,0,.5,2.39c.49.7,1,1.39,1.39,2a4.33,4.33,0,0,1,.79,3.28c0,.1-.1.2-.2.3V22.82a12.59,12.59,0,0,0-2.48-2.69,3.91,3.91,0,0,1-1.39-3.78c0-.19.1-.39-.1-.39s-.2.1-.3.3a12.69,12.69,0,0,0-1.59,3.08.73.73,0,0,1-.2.6,3.75,3.75,0,0,1,.1-1.1,9.38,9.38,0,0,1,.59-2.19c.1-.2.3-.39.1-.59a.62.62,0,0,0-.59,0,18.58,18.58,0,0,0-3.19,1,64.3,64.3,0,0,0-7.85,4,.76.76,0,0,1-.4.2.55.55,0,0,1-.5.3.82.82,0,0,1,.5-.5,27.41,27.41,0,0,1,10.24-5.77,11.64,11.64,0,0,1,6.67.2,41.68,41.68,0,0,1,12,6.17,2.06,2.06,0,0,1,.8.59,1.6,1.6,0,0,1-1.1-.4A85.78,85.78,0,0,0,65.26,17.85ZM77.29,42a3.59,3.59,0,0,0,1.89-4.17c-.1-.4-.2-.4-.5-.2A9.58,9.58,0,0,0,77.29,39a2.46,2.46,0,0,1,1-2,1.25,1.25,0,0,0,.49-1.19,7.52,7.52,0,0,0,3,2.09c.1,0,.2.1.1.3-1,2.08-2.09,4-4.28,5a19.88,19.88,0,0,0-3.48,2.19,9.71,9.71,0,0,0-1.06.86c-.29.27-.55.7-.91.89a2.21,2.21,0,0,1-.34.18c-.24.07-.37-.2-.46-.38a3.41,3.41,0,0,1-.26-.76c0-.21-.11-.4-.16-.61a2.44,2.44,0,0,1,0-.38l-.05-.09c.14,0,.16.1.24.19a.9.9,0,0,0,.9.34,1.43,1.43,0,0,0,.71-.64,7.58,7.58,0,0,1,.9-1c.31-.29.57-.6.88-.88a2.58,2.58,0,0,1,.54-.45c.16-.09.36,0,.52-.13a1.43,1.43,0,0,1,.51-.07A4.19,4.19,0,0,0,77.29,42ZM1.6,39c-.1-.6.2-.5.5-.3a19.89,19.89,0,0,1,2.79,2.19,1.83,1.83,0,0,1,.69.5c.1.1.3.2.2.4s-.3,0-.4-.1a2.94,2.94,0,0,0-.49-.4c.19.6-.1.7-.5.7H3a.66.66,0,0,1-.7-.6,5.14,5.14,0,0,0-1.09-2.19H1.5c.2.1.2.3.4.3A.55.55,0,0,0,1.6,39Zm-1-.6c-.1-.19.1-.19.3-.19s.59-.1.59.39c0,.2-.1.3-.19.3A1.16,1.16,0,0,1,.61,38.43Zm87.62,20a.1.1,0,0,1-.1-.1c-.3-.2-.69-.5-.69-.8s.49-.3.69-.5c.1-2.28,0-4.67-.1-7V47.19c0-.4,0-.7-.49-.3-.3.2-.5,0-.7-.2-.9-.8-1.69-1.59-2.49-2.39a1.32,1.32,0,0,0-1.19-.49c-1.19,0-2.39.09-3.68,0a3.13,3.13,0,0,0-2.29.69,8.6,8.6,0,0,1-1,.6,1,1,0,0,1-.5.4,1,1,0,0,1-.5.39,10.46,10.46,0,0,0-1.09.9,2.41,2.41,0,0,1-.8.6l-.1.1a2.47,2.47,0,0,0-.69,2.18v1.2c0,1.19.1,2.38.1,3.68,0,1-.6,1.59-1.59,1.39-.1,0-.2-.1-.3,0s0,.2,0,.3a1.54,1.54,0,0,0,1.69,1c.3,0,.3.1.3.3-.1,1.59,0,3.18,0,4.87v1.89a.6.6,0,0,1-.1.4c-.6.4-.2.7.1,1a16.87,16.87,0,0,1,1.89,1.89l.29.29a5.82,5.82,0,0,0,2.69,1.4c2.19.59,4.28,1.39,6.37,1.89a1.16,1.16,0,0,0,1-.1A36.54,36.54,0,0,1,88.23,69c.2-.2.1-.5.1-.7V60.12c0-.1.1-.2.2-.3v-.1l.1-.1c.1-.1.2-.1.3-.2h0C89.13,58.72,88.93,58.53,88.23,58.43ZM82,63.8c0,1.39-.5,1.79-1.89,1.59a2.87,2.87,0,0,1-2-1.39c-.1-.2-.2-.4.1-.4.59-.1.49-.5.49-.9V49.47c0-1.19.5-1.49,1.6-1a.83.83,0,0,0,1.19-.5,6.3,6.3,0,0,1,.5,2.29ZM72,50.67c0-.09-.15-.26-.19-.33s-.12-.22-.19-.33c-.36-.65-.73-1.29-1.08-1.95-.18-.32-.35-.64-.52-1l-.25-.48c0-.06,0-.12-.07-.17a.81.81,0,0,0-.12-.14.46.46,0,0,1-.07-.16.48.48,0,0,0-.3-.24,2.06,2.06,0,0,0-.43,0l-1,0c-.66,0-1.32.06-2,.06-.39,0-.49.2-.69.5a18.59,18.59,0,0,1-1.39,2.29A3.47,3.47,0,0,1,62.27,50a2.71,2.71,0,0,1-.89.1,4.82,4.82,0,0,0-1.2,0H58.59v4.18a1.32,1.32,0,0,1-1.69,1.39,6.79,6.79,0,0,1-1.29-.2c-.6-.3-.7-.5-.2-1a.76.76,0,0,0,.2-.5V51.76h-.5c-.1,0-.2.1-.4.1a1,1,0,0,1-.49.1h-.6a.43.43,0,0,1-.7-.1h-.1l-.09-.1c-.2,0-.2-.2-.2-.3,0-1.29-.3-2.58.59-3.78v-.1a.35.35,0,0,1,.1-.19c.1-.3-.1-.5-.4-.7a5.65,5.65,0,0,0-3.58-.9c-3,.1-6,0-9,0-.3,0-.69-.1-.49.4a2.66,2.66,0,0,1,.39,1.49v6.47a1,1,0,0,1-.79,1.09,2.19,2.19,0,0,1-2.09-.3c-.3-.19-.5-.39,0-.59a1.38,1.38,0,0,1,.4-.3V47.78c0-.39,0-.69-.5-.29-.3.19-.6.09-1-.1s-.9-.5-1.3-.8a4.2,4.2,0,0,0-2.78-.89h-.3c-1.79.09-3.58,0-5.37,0a2.26,2.26,0,0,0-1.1.29l-3,2.09a1.05,1.05,0,0,0-.5.9c0,2.09-.1,4.27-.1,6.36a1.35,1.35,0,0,1-1.49,1.49c-.2,0-.4-.1-.4.1s.1.3.3.4a1.54,1.54,0,0,0,1.3.5c.29,0,.39.1.39.4V63.6c0,.4-.2.49-.39.69s-.3.4,0,.5c1.09.5,2.18,1.1,3.28,1.69a.37.37,0,0,0,.3.1h.1a2.12,2.12,0,0,1,.79-.1c.1,0,.3-.1.4-.1h.4c.39-.1.79-.1,1.19-.2a23.56,23.56,0,0,1,2.78-.39h.2a1.27,1.27,0,0,0,.6-.1,1.7,1.7,0,0,1,.7-.1,1.44,1.44,0,0,1,.69-.1l.1-.1h.2a.6.6,0,0,1,.4-.1.76.76,0,0,1,.4-.2c.1-.1.2-.1.3-.2a6.36,6.36,0,0,1,1.39-1,7.67,7.67,0,0,1,.89-.7,2.47,2.47,0,0,0,1.3-2.78c-.1-1.2,0-2.49,0-3.68.19-.9.59-1.2,1.09-.8a1.93,1.93,0,0,0,1.29.3c.3-.1.3.1.3.3-.2,1.89-.1,3.78-.2,5.67a1.9,1.9,0,0,1-1.39,2v.1a.6.6,0,0,0,.4.1H51.53a4,4,0,0,0,1.39-.49c.1,0,.3-.1.3,0h.2a1.26,1.26,0,0,1,.7-.6c.1-.1.2-.1.3-.2a.73.73,0,0,1,.39-.2,10,10,0,0,0,1.3-.79c-.1-1.6-.1-3.19-.2-4.88a2.15,2.15,0,0,1,.1-.79,1.6,1.6,0,0,1,.69-.7c.4-.3.5.2.7.4.1,0,.2.1.3.2a.1.1,0,0,1,.1.1,2.51,2.51,0,0,0,1.19-.1c0,2.19.1,4.37,0,6.46,0,.9-.79,1.39-1.49,1.79-.2.1-.5.1-.2.4a4.75,4.75,0,0,1,1.19.1H59a1.27,1.27,0,0,1,.6.1h.1a2.15,2.15,0,0,1,.79.1c.2,0,.5-.1.7.1a51.88,51.88,0,0,1,5.37.69l3.28.6h.1c.2,0,.3-.1.4-.3.7-1.19,1.39-2.48,2.09-3.68a1.25,1.25,0,0,0,.1-.59c-.3.29-.3.19-.3.1s0-.2-.1-.2-.3.1-.4.2a5.71,5.71,0,0,1-3.38.49c-1.29-.1-2.49-.49-3.78-.49-.2,0-.5,0-.6-.2s.2-.3.4-.4.3-.4.3-.6V58.62c0-.59.3-.59.7-.49a25.61,25.61,0,0,1,2.48,1c.3.1.4.1.4-.2V53.35c0-.1-.1-.1-.1-.2s-.1,0-.2.1a1.73,1.73,0,0,1-1.89,1H63.77v-.1a1.76,1.76,0,0,0,.69-1.89V50.57c0-.5.2-.5.6-.6,2.29-.3,4.37.5,6.56,1.2.2.09.4.29.6,0v-.1C72.22,51,72,50.77,72,50.67ZM31.24,60.32A1.45,1.45,0,0,1,30,61.91a14.89,14.89,0,0,1-2,.2c-.4,0-.7-.1-.8-.6.7-.1.9-.5.9-1.19V50.47c0-.8.2-1,1-.9h.6A1.11,1.11,0,0,0,31,48.88a1.08,1.08,0,0,1,.3.89C31.24,53.25,31.24,56.73,31.24,60.32Zm18.3-1c0,1-.4,1.39-1.39,1.49H46.06a1.6,1.6,0,0,0,.7-1.39v-10c0-.29.1-.39.4-.39h1.09c.2,0,.5,0,.6-.2.29-.5.39-.2.59.1a2.86,2.86,0,0,1,.2.89C49.54,53.05,49.54,56.24,49.54,59.32ZM20.2,67a2.49,2.49,0,0,1-1.59-1.39c-.1-.1-.2-.3,0-.4.6-.5.4-1.19.3-1.79-.3-1.49-.6-3.08-1-4.58a1.15,1.15,0,0,1,.5-1.49A3.77,3.77,0,0,0,19.9,54c0-2.49.1-4.87.1-7.36v-.3a.37.37,0,0,0-.1-.3c-.29-.2-.39.1-.49.2-.3.2-.5,0-.7-.1C17.82,45.4,17,44.7,16.12,44a.73.73,0,0,0-.59-.19H5c-.39,0-.49.09-.39.49h0a6.47,6.47,0,0,1,.59,2.39v10c0,1.2-.49,1.7-1.59,1.8-.2,0-.4,0-.3.29a1.65,1.65,0,0,0,1,.8c.2,0,.3.1.4,0,.59-.2.49.2.49.5v8.65A5.93,5.93,0,0,1,3.59,73c.3.1.5-.1.7-.1,2.19-.8,4.47-1.69,6.66-2.49.9-.3,1-.6.5-1.39a4.13,4.13,0,0,1-.5-1.89V62c0-1.1.1-1.2,1.2-1.6.49,2.39,1,4.68,1.39,7.07a2.33,2.33,0,0,1-.1,2c.2.1.4,0,.6,0,.49-.1,1.09-.3,1.59-.4,1.59-.4,3.18-.9,4.77-1.39.2-.1.6.09.5-.3S20.4,67.08,20.2,67ZM13.64,54.45c0,1-1,1.69-2.39,1.79H10.06a2.09,2.09,0,0,0,.59-2.09V49c0-.4.1-.5.5-.5h1.19a.9.9,0,0,0,.5-.1c.5-.3.7-.2.8.4A53.62,53.62,0,0,1,13.64,54.45Z" fill="#fc0"/>
</svg>
